<?xml version="1.0" encoding="UTF-8"?>
<svg width="825.96mm" height="518.83mm" version="1.1" viewBox="0 0 2926.6367 1838.3723" xmlns="http://www.w3.org/2000/svg">
 <defs>
  <radialGradient id="f" cx="349.05" cy="2056.5" r="1557.1" gradientTransform="matrix(2.2603 0 0 1.2283 -471.65 -1069.4)" gradientUnits="userSpaceOnUse">
   <stop stop-color="#002531" offset="0"/>
   <stop stop-color="#00001b" offset="1"/>
  </radialGradient>
  <filter id="d" x="-.031187" y="-.019505" width="1.0624" height="1.039" color-interpolation-filters="sRGB">
   <feGaussianBlur stdDeviation="4.006911"/>
  </filter>
  <filter id="e" x="-.24" y="-.24" width="1.48" height="1.48" color-interpolation-filters="sRGB">
   <feGaussianBlur stdDeviation="0.43530002"/>
  </filter>
 </defs>
 <g transform="translate(1130 401.29)">
  <rect transform="matrix(.97805 0 0 .97805 7.3163 11.368)" x="-1162.9" y="-421.92" width="2992.3" height="1879.6" color="#000000" color-rendering="auto" fill="url(#f)" image-rendering="auto" shape-rendering="auto" solid-color="#000000" style="isolation:auto;mix-blend-mode:normal"/>
  <g transform="translate(88,-100)" fill="#fff">
   <circle transform="translate(522.89 211.12)" cx="-828.26" cy="429.07" r="2.1765"/>
   <circle transform="translate(1057.7 183.33)" cx="-821.05" cy="476.16" r="2.1765"/>
   <circle transform="translate(141.61 -668.72)" cx="-738.95" cy="575.86" r="2.1765"/>
   <circle transform="translate(2029.1 -717.11)" cx="-722.82" cy="479.09" r="2.1765"/>
   <circle transform="translate(1263.3 143.55)" cx="-634.85" cy="536.27" r="2.1765"/>
   <circle transform="translate(93.981 486.57)" cx="-628.99" cy="439.5" r="2.1765"/>
   <circle transform="translate(291.44 140.62)" cx="-711.76" cy="707.15" r="2.1765"/>
   <circle transform="translate(-350.34 32.777)" cx="-542.48" cy="636.5" r="2.1765"/>
   <circle transform="translate(657.1 167.62)" cx="-481.17" cy="611.18" r="2.1765"/>
   <circle transform="translate(-173.69 301.71)" cx="-439.85" cy="561.86" r="2.1765"/>
   <circle transform="translate(1439.1 -139.87)" cx="-640.89" cy="600.94" r="4.353"/>
   <circle transform="translate(1024.2 91.103)" cx="-625.84" cy="634.45" r="4.353"/>
   <circle transform="translate(587.89 -738.78)" cx="-599.16" cy="582.47" r="4.353"/>
   <circle transform="translate(568.22 -734.05)" cx="-589.59" cy="626.24" r="4.353"/>
   <circle transform="translate(90.761 -725.34)" cx="-588.9" cy="652.92" r="4.353"/>
   <circle transform="translate(1699.7 335.06)" cx="-688.08" cy="661.13" r="4.353"/>
   <circle transform="translate(2284 -785.35)" cx="-651.83" cy="683.01" r="2.0504"/>
   <circle transform="translate(832.49 -526.38)" cx="-640.89" cy="705.59" r="2.6795"/>
   <circle transform="translate(1551.6 -952.55)" cx="-608.06" cy="696.69" r="2.3458"/>
   <circle transform="translate(1426.6 271.9)" cx="-601.22" cy="724.74" r="2.2589"/>
   <circle transform="translate(-697.52 -840.64)" cx="-517.09" cy="711.74" r="1.194"/>
   <circle transform="translate(1179.1 140.16)" cx="-518.45" cy="685.07" r="3.1323"/>
   <circle transform="translate(-206.85 -884.49)" cx="-364.56" cy="726.79" r="1.7137"/>
   <circle transform="translate(1582.2 51.143)" cx="-450.06" cy="738.42" r="2.818"/>
   <circle transform="translate(1723 -872.03)" cx="-481.52" cy="738.42" r="1.7438"/>
   <circle transform="translate(-75.572 -388.68)" cx="-551.29" cy="720.63" r="3.2027"/>
   <circle transform="translate(492.07 584.5)" cx="-20.779" cy="322.49" r="2.3729"/>
   <circle transform="translate(1110 337.46)" cx="-51.948" cy="647.17" r="2.7855"/>
   <circle transform="translate(1219.1 333.48)" cx="231.17" cy="384.83" r="3.1683"/>
   <circle transform="translate(-599.9 117.03)" cx="244.16" cy="888.73" r="1.8268"/>
   <circle transform="translate(-475.73 -187.11)" cx="246.75" cy="943.27" r="2.226"/>
   <circle transform="translate(1576.9 -1044.2)" cx="-314.29" cy="909.51" r="1.4699"/>
   <circle transform="translate(13.796 587.52)" cx="-246.75" cy="231.58" r="3.1331"/>
   <circle transform="translate(1755.1 363.25)" cx="-171.43" cy="158.86" r="1.2132"/>
   <circle transform="translate(-1534.6 709.99)" cx="485.71" cy="80.934" r="3.0252"/>
   <circle transform="translate(987.93 1038.6)" cx="540.26" cy="-46.339" r="3.2371"/>
   <circle transform="translate(2.9465 829.98)" cx="371.43" cy="-137.25" r="1.2364"/>
   <circle transform="translate(1080.9 288.89)" cx="137.66" cy="-160.62" r="1.3969"/>
   <circle transform="translate(-795.94 177.46)" cx="62.338" cy="-168.42" r="3.0836"/>
   <circle transform="translate(-238.97 980.15)" cx="-467.53" cy="-165.82" r="3.0262"/>
   <circle transform="translate(937.39 702.54)" cx="-501.3" cy="-142.44" r="1.1829"/>
   <circle transform="translate(2075.2 66.76)" cx="-511.69" cy="-35.949" r="1.7528"/>
   <circle transform="translate(1722 -52.276)" cx="-480.52" cy="28.986" r="3.1005"/>
   <circle transform="translate(888.31 -288.74)" cx="-366.23" cy="148.47" r="2.7671"/>
   <circle transform="translate(1307.6 -67.493)" cx="96.104" cy="203.01" r="2.8609"/>
   <circle transform="translate(-314.3 164.89)" cx="428.57" cy="221.19" r="2.1213"/>
   <circle transform="translate(-1231.7 443.54)" cx="488.31" cy="265.35" r="2.8788"/>
   <circle transform="translate(571.09 .38535)" cx="493.51" cy="400.41" r="2.566"/>
   <circle transform="translate(-1555.5 -705.62)" cx="545.45" cy="558.86" r="2.928"/>
   <circle transform="translate(184.21 -499.4)" cx="576.62" cy="597.82" r="1.2591"/>
   <circle transform="translate(-713.03 -277.33)" cx="607.79" cy="662.75" r="2.0935"/>
   <circle transform="translate(577.16 -718.44)" cx="612.99" cy="706.91" r="2.0266"/>
   <circle transform="translate(344.43 -641.34)" cx="986.05" cy="954.37" r="3.073"/>
   <circle transform="translate(-2377.5 -641.13)" cx="1267.8" cy="537.9" r="2.8442"/>
   <circle transform="translate(349.02 30.076)" cx="1335.1" cy="103.06" r="1.5685"/>
   <circle transform="translate(-1218.1 957.31)" cx="1329" cy="-25.557" r="1.208"/>
   <circle transform="translate(-1998.9 659.57)" cx="1188.2" cy="-74.553" r="3.0155"/>
   <circle transform="translate(-878.55 286.63)" cx="1028.9" cy="11.19" r="2.9321"/>
   <circle transform="translate(502.84 574.5)" cx="986.05" cy="213.3" r="1.248"/>
   <circle transform="translate(-1963.7 573.34)" cx="979.93" cy="433.78" r="2.8841"/>
   <circle transform="translate(-2613.8 -398.81)" cx="1463.8" cy="874.75" r="3.0487"/>
   <circle transform="translate(57.084 -1017.7)" cx="1518.9" cy="954.37" r="3.0547"/>
   <circle transform="translate(-1348.9 -560.8)" cx="1310.7" cy="1009.5" r="2.1184"/>
   <circle transform="translate(-1786.5 -1141.5)" cx="1028.9" cy="966.62" r="1.9738"/>
   <circle transform="translate(-553.3 -942.8)" cx="906.43" cy="972.74" r="2.3693"/>
   <circle transform="translate(248.77 -868.84)" cx="679.82" cy="997.24" r="2.1881"/>
   <circle transform="translate(-1337.8 -787.43)" cx="520.59" cy="1009.5" r="2.6212"/>
   <circle transform="translate(910.09 9.2777)" cx="373.6" cy="936" r="2.763"/>
   <circle transform="translate(-88.759 -184.82)" cx="153.11" cy="727.76" r="2.0054"/>
   <circle transform="translate(624.86 -691.73)" cx="-42.872" cy="476.66" r="2.364"/>
   <circle transform="translate(1558.8 20.423)" cx="-312.35" cy="188.8" r="2.2039"/>
   <circle transform="translate(924.71 286.93)" cx="-618.58" cy="-13.308" r="1.9932"/>
   <circle transform="translate(2268.5 988.61)" cx="-765.57" cy="-154.17" r="2.7312"/>
   <circle transform="translate(123.8 174.04)" cx="-618.58" cy="-166.42" r="1.2723"/>
   <circle transform="translate(211.57 784.51)" cx="-146.99" cy="-141.92" r="1.9373"/>
   <circle transform="translate(897.54 308.49)" cx="116.37" cy="-123.55" r="1.9837"/>
   <circle transform="translate(-183.15 943.65)" cx="361.35" cy="-111.3" r="2.7068"/>
   <circle transform="translate(94.115 73.679)" cx="538.96" cy="-62.304" r="2.0427"/>
   <circle transform="translate(-895.26 271.69)" cx="661.45" cy="72.436" r="2.8253"/>
   <circle transform="translate(-1881.1 -121.49)" cx="820.69" cy="225.55" r="1.4129"/>
   <circle transform="translate(-265.05 -632.23)" cx="998.3" cy="384.79" r="2.3626"/>
   <circle transform="translate(-454.61 403.24)" cx="1108.5" cy="372.54" r="3.1293"/>
   <circle transform="translate(-1504.9 593.2)" cx="1224.9" cy="348.04" r="2.9114"/>
   <circle transform="translate(-2024.8 -211.83)" cx="1427" cy="133.68" r="3.1525"/>
   <circle transform="translate(-1874.8 733.34)" cx="1531.1" cy="-111.3" r="2.2084"/>
   <circle transform="translate(-555.09 487.13)" cx="1610.8" cy="-129.67" r="2.8691"/>
   <circle transform="translate(-2865 906.51)" cx="1684.2" cy="78.56" r="2.5495"/>
   <circle transform="translate(-316.57 -112.4)" cx="1696.5" cy="329.67" r="2.21"/>
   <circle transform="translate(-1678.7 -763.13)" cx="1708.7" cy="482.78" r="1.6716"/>
   <circle transform="translate(-1246.7 -754.1)" cx="1672" cy="562.4" r="2.1863"/>
   <circle transform="translate(-600.19 -580.57)" cx="1451.5" cy="617.52" r="1.2213"/>
   <circle transform="translate(-1977.8 -503.65)" cx="1329" cy="635.89" r="1.8314"/>
   <circle transform="translate(-170.99 -531.98)" cx="1108.5" cy="605.27" r="1.7061"/>
   <circle transform="translate(15.77 394.81)" cx="820.69" cy="537.9" r="2.5241"/>
   <circle transform="translate(-1369.6 297.34)" cx="551.21" cy="642.02" r="3.2263"/>
   <circle transform="translate(1092.7 -462.43)" cx="502.21" cy="776.76" r="2.6338"/>
   <circle transform="translate(554.96 -1037.2)" cx="257.23" cy="929.87" r="1.5236"/>
   <circle transform="translate(1679.5 87.952)" cx="-85.744" cy="868.63" r="2.9959"/>
   <circle transform="translate(1842.3 -26.542)" cx="-349.1" cy="948.25" r="1.2634"/>
   <circle transform="translate(-291.13 -883.27)" cx="-514.46" cy="1003.4" r="2.5866"/>
   <circle transform="translate(-394.55 -782.83)" cx="-649.2" cy="1021.7" r="1.3646"/>
   <circle transform="translate(1284.2 -624.58)" cx="-722.7" cy="917.62" r="2.8684"/>
   <circle transform="translate(308.34 -837.39)" cx="888.06" cy="899.25" r="2.9351"/>
   <circle transform="translate(-1222.5 -26.594)" cx="1427" cy="782.88" r="1.5798"/>
   <circle transform="translate(-125.94 -927.07)" cx="1537.3" cy="819.63" r="1.2449"/>
   <circle transform="translate(-592.53 -522.84)" cx="1653.6" cy="838" r="2.6623"/>
   <circle transform="translate(-1776 -207.29)" cx="1678.1" cy="697.14" r="1.9694"/>
   <circle transform="translate(-1465.7 408.95)" cx="1629.1" cy="84.685" r="3.1312"/>
   <circle transform="translate(-2267.2 199.49)" cx="1567.9" cy="-111.3" r="1.7226"/>
   <circle transform="translate(-2570.8 1088.9)" cx="1500.5" cy="-184.79" r="2.5904"/>
   <circle transform="translate(-629.42 202.6)" cx="1359.6" cy="-197.04" r="2.782"/>
   <circle transform="translate(-78.001 1150.5)" cx="496.09" cy="-172.55" r="1.3558"/>
   <circle transform="translate(-842.83 882.01)" cx="385.85" cy="-123.55" r="2.1796"/>
   <circle transform="translate(-1177.9 -17.416)" cx="-24.498" cy="-99.051" r="2.8527"/>
   <circle transform="translate(1885.4 459.58)" cx="-1071.8" cy="-135.8" r="1.1931"/>
   <circle transform="translate(1652.3 925.75)" cx="-1237.2" cy="-197.04" r="1.3554"/>
   <circle transform="translate(777.11 359.09)" cx="-1016.7" cy="-209.29" r="3.0694"/>
   <circle transform="translate(2657.7 270.91)" cx="-961.55" cy="-276.66" r="1.3351"/>
   <circle transform="translate(498.88 650.47)" cx="-826.81" cy="-258.29" r="1.9998"/>
   <circle transform="translate(-257.86 912.72)" cx="-649.2" cy="-233.79" r="2.8759"/>
   <circle transform="translate(608.09 1062.2)" cx="-489.96" cy="-233.79" r="2.9453"/>
   <circle transform="translate(1780.2 44.174)" cx="-336.85" cy="-215.42" r="2.4423"/>
   <circle transform="translate(663.03 60.655)" cx="-110.24" cy="-258.29" r="2.0723"/>
   <circle transform="translate(-324.09 235.79)" cx="-6.1245" cy="-282.79" r="1.8376"/>
   <circle transform="translate(1588.7 555.21)" cx="91.868" cy="-282.79" r="2.9953"/>
   <circle transform="translate(-1529.2 992.18)" cx="336.85" cy="-258.29" r="2.8758"/>
   <circle transform="translate(-676.86 1021.8)" cx="606.33" cy="-252.16" r="2.1216"/>
   <circle transform="translate(874.06 583.01)" cx="728.82" cy="-301.16" r="1.6316"/>
   <circle transform="translate(-408.52 391.99)" cx="814.56" cy="-252.16" r="1.8634"/>
   <circle transform="translate(-1739.6 561.96)" cx="826.81" cy="109.18" r="2.9063"/>
   <circle transform="translate(743.56 558.83)" cx="557.33" cy="164.3" r="2.2366"/>
   <circle transform="translate(1231.4 182.64)" cx="330.73" cy="182.68" r="1.2097"/>
   <circle transform="translate(-602.04 379.56)" cx="-171.49" cy="35.689" r="1.7598"/>
   <circle transform="translate(421.68 731.38)" cx="-447.09" cy="11.19" r="1.6719"/>
   <circle transform="translate(297.3 628.67)" cx="-612.45" cy="139.81" r="1.5023"/>
   <circle transform="translate(1418.9 26.494)" cx="-845.19" cy="127.56" r="1.9591"/>
   <circle transform="translate(2183.7 768.15)" cx="-857.44" cy="127.56" r="2.5484"/>
   <circle transform="translate(499.29 610.21)" cx="-679.82" cy="335.79" r="2.0606"/>
   <circle transform="translate(842.39 543.34)" cx="-520.59" cy="415.41" r="2.4137"/>
   <circle transform="translate(1205.3 -21.639)" cx="-61.245" cy="544.03" r="2.6585"/>
   <circle transform="translate(-1098.2 546.27)" cx="67.37" cy="452.16" r="1.2049"/>
   <circle transform="translate(-515.13 434.74)" cx="232.73" cy="23.44" r="1.8613"/>
   <circle transform="translate(-336.06 541.38)" cx="263.36" cy="60.187" r="2.5652"/>
   <circle transform="translate(493.61 -296.73)" cx="312.35" cy="317.42" r="2.5203"/>
   <circle transform="translate(75.376 -237.73)" cx="355.22" cy="458.28" r="2.3862"/>
   <circle transform="translate(1000.8 -243.61)" cx="434.84" cy="574.65" r="2.4246"/>
   <circle transform="translate(148.41 101.92)" cx="930.93" cy="660.39" r="2.0242"/>
   <circle transform="translate(-1844.2 -681.81)" cx="1047.3" cy="574.65" r="2.4325"/>
   <circle transform="translate(-1952.3 -489.15)" cx="1145.3" cy="274.55" r="2.8964"/>
   <circle transform="translate(61.597 475.97)" cx="1218.8" cy="109.18" r="1.1054"/>
   <circle transform="translate(-2111.1 796.23)" cx="1310.7" cy="-7.1831" r="3.1706"/>
   <circle transform="translate(-1759.9 844.97)" cx="1390.3" cy="158.18" r="2.4651"/>
   <circle transform="translate(-1400.9 -345.98)" cx="1390.3" cy="397.04" r="1.9514"/>
   <circle transform="translate(-1617.2 -457.02)" cx="1402.5" cy="568.52" r="1.3664"/>
   <circle transform="translate(-2338.9 -944.69)" cx="1298.4" cy="703.26" r="1.8"/>
   <circle transform="translate(568.17 711.8)" cx="-828.26" cy="429.07" r="2.1765" fill-opacity=".67857"/>
   <circle transform="translate(1103 684.01)" cx="-821.05" cy="476.16" r="2.1765" fill-opacity=".67857"/>
   <circle transform="translate(1308.6 644.23)" cx="-634.85" cy="536.27" r="2.1765" fill-opacity=".67857"/>
   <circle transform="translate(-305.06 533.45)" cx="-542.48" cy="636.5" r="2.1765"/>
   <circle transform="translate(702.38 668.3)" cx="-481.17" cy="611.18" r="2.1765" fill-opacity=".67857"/>
   <circle transform="translate(1069.5 591.78)" cx="-625.84" cy="634.45" r="4.353" fill-opacity=".67857"/>
   <circle transform="translate(1627.5 551.82)" cx="-450.06" cy="738.42" r="2.818" fill-opacity=".67857"/>
   <circle transform="translate(1264.4 834.15)" cx="231.17" cy="384.83" r="3.1683"/>
   <circle transform="translate(-430.45 313.57)" cx="246.75" cy="943.27" r="2.226" fill-opacity=".67857"/>
   <circle transform="translate(-1489.3 1210.7)" cx="485.71" cy="80.934" r="3.0252"/>
   <circle transform="translate(48.224 1330.7)" cx="371.43" cy="-137.25" r="1.2364" fill-opacity=".67857"/>
   <circle transform="translate(-1186.5 944.22)" cx="488.31" cy="265.35" r="2.8788" fill-opacity=".67857"/>
   <circle transform="translate(548.12 1075.2)" cx="986.05" cy="213.3" r="1.248"/>
   <circle transform="translate(256.85 1285.2)" cx="-146.99" cy="-141.92" r="1.9373" fill-opacity=".67857"/>
   <circle transform="translate(-409.34 903.91)" cx="1108.5" cy="372.54" r="3.1293" fill-opacity=".67857"/>
   <circle transform="translate(-1829.5 1234)" cx="1531.1" cy="-111.3" r="2.2084" fill-opacity=".67857"/>
   <circle transform="translate(-1177.2 474.08)" cx="1427" cy="782.88" r="1.5798" fill-opacity=".67857"/>
   <circle transform="translate(-797.55 1382.7)" cx="385.85" cy="-123.55" r="2.1796" fill-opacity=".67857"/>
   <circle transform="translate(1697.6 1426.4)" cx="-1237.2" cy="-197.04" r="1.3554" fill-opacity=".67857"/>
   <circle transform="translate(-212.59 1413.4)" cx="-649.2" cy="-233.79" r="2.8759"/>
   <circle transform="translate(-1483.9 1492.9)" cx="336.85" cy="-258.29" r="2.8758"/>
   <circle transform="translate(-631.58 1522.5)" cx="606.33" cy="-252.16" r="2.1216" fill-opacity=".67857"/>
   <circle transform="translate(788.84 1059.5)" cx="557.33" cy="164.3" r="2.2366" fill-opacity=".67857"/>
   <circle transform="translate(466.95 1232.1)" cx="-447.09" cy="11.19" r="1.6719" fill-opacity=".67857"/>
   <circle transform="translate(342.58 1129.4)" cx="-612.45" cy="139.81" r="1.5023" fill-opacity=".67857"/>
   <circle transform="translate(193.68 602.6)" cx="930.93" cy="660.39" r="2.0242" fill-opacity=".67857"/>
   <circle transform="translate(-2065.8 1296.9)" cx="1310.7" cy="-7.1831" r="3.1706"/>
  </g>
  <g fill="#fff">
   <path transform="matrix(.99998 .006592 -.006592 .99998 .65153 -3.5882)" d="m398.74 325.62 419.63-657.19-407.18 666.05z" color="#000000" color-rendering="auto" filter="url(#d)" image-rendering="auto" shape-rendering="auto" solid-color="#000000" style="isolation:auto;mix-blend-mode:normal"/>
   <path transform="matrix(4.6464 -.44822 .44822 4.6464 -1570.5 -811.89)" d="m398.95 283.58c0 1.202-0.35409 2.7888-1.5561 2.7888s-2.1765-0.97445-2.1765-2.1765 1.2614-1.8017 2.4635-1.8017c0.85478-0.84888 1.9251 0.25744 1.2692 1.1894z" filter="url(#e)"/>
  </g>
  <path transform="matrix(1.8291 0 0 1.8291 2876.9 2753.6)" d="m-2190.6-918.15 2.0957-2.6642c1.1527-1.4654 1.8586-3.2823 1.5687-4.0377-0.695-1.8111 2.2482-5.5795 2.9818-3.8178 0.2862 0.6875 1.518 1.25 2.7371 1.25 1.2192 0 2.6442 0.4179 3.1667 0.9287s2.525 1.0733 4.45 1.25l3.5 0.3213-0.3111 4.1927-0.311 4.1928 3.1627 1.6355c2.52 1.3031 3.0689 2.1259 2.7013 4.0489-0.7486 3.9159 9.0215 5.9236 14.258 2.9301 1.375-0.786 2.785-1.4451 3.1334-1.4646 1.221-0.0683 1.772 4.3737 0.7023 5.6626-0.5943 0.7161-0.7145 1.302-0.267 1.302s0.012 0.5862-0.9679 1.3026c-1.4534 1.0628-1.5346 1.4896-0.4411 2.3182 2.1018 1.5926 8.8403 3.3159 8.8403 2.2609 0-0.5122 1.125-1.3589 2.5-1.8817 2.9908-1.1371 3.3487-4 0.5-4-3.0002 0-2.4082-1.8195 0.7105-2.1836 1.9262-0.2249 2.8771-1.0292 3.2864-2.7799 0.3547-1.5169 1.5227-2.7077 3.0396-3.099 3.4979-0.9024-6.0034-2.3941-10.069-1.5809-1.6666 0.3333-2.9673 0.166-2.9673-0.3816 0-0.5362 0.7875-0.9887 1.75-1.0054l1.75-0.0304-1.7085-0.9961c-0.9396-0.5478-1.503-1.5466-1.252-2.2195 0.7455-1.9986-6.564-4.5488-9.8749-3.4451-1.5387 0.5129-2.5921 1.468-2.341 2.1225 0.2512 0.6545-0.4159 1.2557-1.4823 1.336-1.5266 0.115-1.7994-0.2935-1.283-1.9207 0.4227-1.3319 0.2802-1.8345-0.401-1.4135-1.252 0.7737-3.5189-3.0087-2.6478-4.4181 1.5601-2.5244 4.2596-2.8868 7.8537-1.0545 2.9512 1.5046 3.6368 1.5851 3.6368 0.4268 0-1.1013 0.4418-1.1909 1.9343-0.3922 2.5072 1.3419 9.3907 1.3702 8.5657 0.0352-0.3399-0.55-0.045-1 0.6553-1 0.8415 0 0.6727-0.5935-0.4976-1.75l-1.7709-1.75-0.9931 1.75c-1.211 2.134-3.3355 2.3438-2.5321 0.25 0.3166-0.825 0.027-1.5305-0.643-1.5677-0.6702-0.0372-0.2061-0.556 1.0314-1.1528s2.25-1.4664 2.25-1.9323c0-1.3048-1.7679-1.0029-2.3586 0.4028-0.3789 0.9017-0.8275 0.7739-1.6098-0.4585-0.5965-0.9396-1.7476-1.454-2.558-1.143-1.9476 0.7474-1.8714-0.5515 0.1644-2.801 1.2598-1.3921 1.3724-2.13 0.4877-3.1961-0.8842-1.0654-0.7933-1.6824 0.3932-2.6671 1.2807-1.0629 1.773-0.9674 2.8904 0.5608l1.3468 1.8418 0.7014-3.1934c0.3858-1.7564 1.2282-3.2251 1.872-3.2638 0.6438-0.0386 0.2873-0.4156-0.7921-0.8376l-1.9626-0.7674 2.7723-1.8165c1.5247-0.999 2.4079-2.0846 1.9626-2.4123-1.4277-1.0507-4.8201-8.4104-4.5128-9.79 0.1633-0.7329-0.3992-1.5998-1.25-1.9263-1.9399-0.7444-2.0264-2.3796-0.1258-2.3796 0.7815 0 3.476 2.055 5.9876 4.5666 4.78 4.78 6.6367 5.1217 5.8639 1.0793-0.3208-1.6782 0.197-2.8614 1.7184-3.927l2.1775-1.5252-1.6961-0.9492c-1.8657-1.0441-1.2553-7.2445 0.7131-7.2445 0.5647 0 1.9478-1.171 3.0736-2.6023 1.7852-2.2694 2.1631-2.3946 2.9554-0.9789 0.4996 0.8928 1.2836 1.3914 1.7422 1.108 0.4585-0.2834 1.1241 0.2415 1.4791 1.1665 0.391 1.0188 0.035 2.0231-0.9018 2.5476-1.175 0.6576-1.3018 1.3244-0.5271 2.772 0.5611 1.0483 0.9184 2.2618 0.7942 2.6966-0.1243 0.4348 0.2749 1.6905 0.8871 2.7905 0.6121 1.1 1.1127 3.7175 1.1124 5.8167-7e-4 4.7219 0.6919 5.4813 3.4364 3.7674l2.146-1.3402 2.3565 2.7396 2.3565 2.7396 1.9284-1.7452c1.0606-0.9599 1.6875-2.1351 1.393-2.6115-0.9029-1.461 1.2601-0.9599 2.5462 0.5898 1.3071 1.5749 0.4921 3.9435-1.0327 3.0011-1.6404-1.0138-0.9968 1.1892 1.1417 3.9078 1.9449 2.4726 1.8039 3.1331-0.5726 2.6819-0.55-0.1044-0.4263 0.3935 0.275 1.1065 0.9718 0.98817 1.7063 1.027 3.0894 0.1632 1.117-0.6975 2.3568-0.7899 3.2251-0.2402 0.7758 0.4911 2.873 0.8998 4.6605 0.9082 3.7388 0.0176 4.3076 1.4424 1 2.5047-1.8446 0.5924-1.9446 0.8049-0.5554 1.1792 1.0874 0.2931 1.4825 1.0613 1.1028 2.1441-0.4768 1.3596-0.3348 1.4492 0.7316 0.4611 1.3825-1.281 3.971-0.0405 3.971 1.9029 0 1.6284 5.8719 7.2848 6.7013 6.4553 0.4376-0.4375 0.016-1.3657-0.9373-2.0626-0.9531-0.6969-1.4438-1.5562-1.0905-1.9096 0.3534-0.3534 1.2573-0.1322 2.0087 0.4914 2.0521 1.7031 2.2796 0.8066 1.1453-4.512-1.132-5.3075 0.034-8.1776 2.3725-5.8392 2.6274 2.6274 4.0877 1.4005 3.4061-2.8618l-0.6495-4.0619 1.7717 0.996c1.4461 0.8129 2.0612 0.4392 3.3468-2.0337l1.5751-3.0296 2.9216 3.0955c1.607 1.7025 3.2607 3.0955 3.675 3.0955 1.2113 0 0.8656-4.4876-0.4468-5.8-0.7818-0.7818-0.8245-1.2-0.1224-1.2 1.58 0 3.0636 2.1039 3.8824 5.5056 0.3964 1.6469 1.4251 4.3444 2.2859 5.9944 0.8609 1.65 1.5067 3.2358 1.435 3.5241-0.072 0.2882 0.7258 1.6382 1.7722 3l1.9024 2.4759 0.099-3c0.054-1.65 0.2764-3.9 0.4936-5 0.8016-4.0599 0.5549-9.1398-0.6968-14.346l-1.2853-5.3458 2.0421-3.6542c1.2774-2.2859 1.956-5.1204 1.812-7.5698-0.3416-5.8138 0.3307-6.8538 3.9871-6.1678 2.6514 0.4974 3.3876 0.1677 4.8338-2.1649 1.258-2.0291 1.713-2.2921 1.7326-1.0017 0.015 0.9625-0.45 1.75-1.0324 1.75-0.5825 0-0.7388 0.5182-0.3474 1.1515 0.4911 0.7945 1.1416 0.5635 2.0985-0.7451 1.565-2.1402 2.5153-1.3265 4.4567 3.8162 0.6222 1.6483 1.6834 2.6347 2.6895 2.5 0.9139-0.1224 1.8546 0.2274 2.0903 0.7774s1.0232 1.5946 1.75 2.3214 1.3214 1.9643 1.3214 2.75 0.45 1.4286 1 1.4286 1 0.81 1 1.8c0 4.0492 8.8985 6.4505 9.079 2.45 0.05-1.1025 0.4505-0.7326 1.0833 1 1.1875 3.2513 2.4553 3.5303 3.3423 0.7355 0.8154-2.5689 2.4954-1.592 2.4954 1.4511 0 1.2752 0.675 2.8787 1.5 3.5634s1.5 2.5398 1.5 4.1224c0 3.2314 1.4437 3.7857 2.8782 1.1051 0.6041-1.1288 0.5782-3.58-0.071-6.75-0.561-2.7376-0.9999-5.765-0.9756-6.7275 0.024-0.9625-0.3295-1.75-0.7865-1.75-1.9667 0-3.893-10.358-2.1289-11.448 0.5494-0.3396 1.7628 0.8598 2.6965 2.6653 0.9336 1.8055 1.5617 3.2827 1.3958 3.2827s0.027 1.0362 0.4291 2.3026c0.5631 1.7742 1.0354 2.0499 2.0577 1.2015 0.8451-0.7014 1.5467-0.7456 1.9322-0.1218 0.333 0.5388 0.1407 1.2667-0.4272 1.6177-1.1276 0.6969-0.4124 2.5 0.9916 2.5 0.4805 0 1.1592-0.9 1.5084-2 0.7827-2.4661 3.3405-2.6187 4.1914-0.25 0.5956 1.6578 3.7623 5.25 4.6281 5.25 0.2217 0 0.1881-1.125-0.075-2.5-0.279-1.4593-0.013-2.5 0.6387-2.5 0.6141 0 1.1166 0.45 1.1166 1s0.675 1 1.5 1c2.744 0 1.5655-4.1186-2.5-8.7373-2.2-2.4994-4-4.8828-4-5.2965 0-1.6056 3.2669-1.8926 5.3037-0.466 3.0642 2.1463 4.0036 1.8603 3.2856-1.0002-0.463-1.8449-0.2294-2.5 0.8916-2.5 1.6673 0 2.0321-2.0509 0.6314-3.55-0.4881-0.5225-1.2229-2.075-1.6329-3.45l-0.7452-2.5 1.8829 1.5754c2.5703 2.1506 8.3829 2.456 8.3829 0.4405 0-0.8338 0.3987-1.5159 0.886-1.5159 1.2582 0 4.3409 6.8239 3.614 8s2.3557 8 3.6139 8c1.3543 0 1.0454-3.1708-0.6201-6.3643-0.8216-1.5754-1.4938-3.5096-1.4938-4.2983s-0.9-3.2968-2-5.5735c-2.4372-5.0443-2.439-4.7639 0.031-4.7639 1.1173 0 2.2949-0.6865 2.6168-1.5255 0.8985-2.3415 3.3519 0.1887 3.3519 3.4568 0 1.4776 0.6601 3.56 1.4668 4.6276l1.4669 1.9411-0.2763-5.0371c-0.1519-2.7704-0.6054-5.5697-1.0077-6.2207-2.2477-3.6367 4.361-2.2171 10.141 2.1784 7.0045 5.3269 8.1332 5.6852 5.2778 1.675-1.1375-1.5974-2.0681-3.6773-2.0681-4.6219v-1.7176l2.25 1.4939c1.2375 0.8217 2.25 2.1079 2.25 2.8583s0.8553 1.529 1.9006 1.7303c1.0454 0.2014 3.0139 1.689 4.3745 3.306 3.1312 3.7212 3.7794 3.1183 1.7834-1.6586-1.8885-4.52-1.8869-4.486-0.2135-4.486 1.5568 0 4.9158 3.4058 4.132 4.1896-0.8078 0.8079 3.1275 8.9437 5.9357 12.271 2.5605 3.0341 4.996 2.8086 2.7955-0.2589-1.5039-2.0964-1.891-3.0221-2.5935-6.202-0.3037-1.375-1.629-3.6507-2.945-5.057-2.8362-3.0309-5.0369-6.9091-4.3247-7.6213 0.2788-0.2789 1.5081 0.64434 2.7317 2.0515 1.2235 1.4072 2.6022 2.3252 3.0638 2.04 0.4615-0.2853-0.041-1.4631-1.1161-2.6174-1.888-2.0264-1.855-4.4271 0.045-3.2531 1.3487 0.8336 1.1472-0.7808-0.6277-5.0287-0.8572-2.0516-1.2456-4.019-0.8631-4.3721 0.3825-0.353 0.8944-0.085 1.1374 0.5947 0.7209 2.0171 4.5283 6.0105 3.9484 4.1413-0.2768-0.8922-0.8011-3.8172-1.1651-6.5l-0.6618-4.8779 2.0748 3c1.1411 1.65 2.0778 3.5625 2.0814 4.25 0 0.6875 0.6816 1.25 1.5066 1.25 0.8621 0 1.5 0.9025 1.5 2.1224 0 1.7672 0.2495 1.9154 1.4903 0.8856 0.9051-0.7511 1.2686-2.1204 0.9256-3.4869-0.3784-1.5076-0.045-2.4494 1.0097-2.8542 0.8659-0.3323 1.5744-0.1089 1.5744 0.4964s1.6864 2.6911 3.7477 4.6351c2.3459 2.2125 3.6257 4.255 3.4215 5.4604-0.2561 1.5118 0.095 1.7921 1.6338 1.3037 2.272-0.7211 3.3453 1.1543 2.5033 4.3739-0.3382 1.2936 0.142 2.9015 1.2234 4.0965 2.4803 2.7407 3.3505 2.4604 3.2508-1.047-0.047-1.6577 0.1871-3.2869 0.5205-3.6203 0.3335-0.3334-0.7658-3.3242-2.4427-6.6461-3.4962-6.9262-4.5264-12.249-2.5195-13.019 0.91-0.3492 1.7244 1.0217 2.5724 4.3304 0.6824 2.6628 2.3316 6.0184 3.6648 7.4569 1.3332 1.4386 2.424 3.2939 2.424 4.123 0 0.82924 0.45 1.2294 1 0.88954 0.55-0.33994 1-1.7165 1-3.059 0-3.5811 3.1609-6.3241 6.5427-5.6776l2.7757 0.5306-1.8504 1.353c-2.1871 1.5993-1.5618 1.7194 1.9669 0.3778 3.4647-1.3173 3.5021 1.2023 0.065 4.3876-1.3931 1.291-2.4689 3.3731-2.4297 4.7023l0.07 2.3853 0.765-1.9557 0.7649-1.9556 1.0975 1.9556 1.0976 1.9557 0.7149-2c2.189-6.1243 3.4399-8.5 4.4755-8.5 0.6541 0 0.889 0.7012 0.5397 1.6113-0.4992 1.3009-0.1397 1.4911 1.8664 0.9876 2.5482-0.6396 2.6837 1.0086 0.3342 4.0621-0.5351 0.6954-0.4943 1.4075 0.1016 1.7758 0.5472 0.3382 2.1909-1.0842 3.6527-3.1609l2.6579-3.7759-0.6782 3c-0.3729 1.65-1.0948 3.15-1.6042 3.3333-1.1778 0.424-1.2198 3.1667-0.049 3.1667 0.4827 0 1.4378-0.675 2.1225-1.5 1.7136-2.0648 2.291-1.9051 4.1425 1.1464l1.6057 2.6464 1.2205-3.6982c1.1045-3.3466 4.0633-4.73 3.1432-1.4696-2.0385 7.2239 0.8761 12.003 3.8881 6.375 1.4696-2.746 3.3046-3.4576 2.3236-0.901-0.5387 1.4039-0.3466 1.4344 1.5743 0.25 1.3262-0.8177 2.011-2.0383 1.7386-3.099-0.2696-1.0501 0.1132-1.75 0.9571-1.75 1.5273 0 1.5183-0.0229 1.8775 4.7749 0.3069 4.0979 1.4242 5.3413 2.1852 2.4314 0.3173-1.2135 0.9744-2.2063 1.4603-2.2063 1.5802 0 0.9322 5.984-1.0738 9.916-1.0764 2.11-1.6954 4.0981-1.3756 4.4179 0.3199 0.3199-0.5994 1.9852-2.0428 3.7006-2.7683 3.29-3.119 4.6374-1.7632 6.7752 0.6278 0.9899 1.2288 0.7018 2.4618-1.18 0.8972-1.3693 2.9916-3.2932 4.6541-4.2753 1.6626-0.9821 3.0372-2.4761 3.0547-3.32 0.018-0.8439 0.6801-2.391 1.4725-3.4379 1.5457-2.0423 1.7385-1.8075 2.9012 3.534 0.3242 1.4896 1.4448 2.8586 2.5835 3.1564 2.4681 0.6454 2.6833 3.7117 0.261 3.7168-2.4463 5e-3 -8.2566 3.704-8.2182 5.2316 0.023 0.8997 0.3891 0.8318 1.2699-0.2353 2.3014-2.7881 5.7285-4.2198 7.1925-3.0048 1.0366 0.8603 1.4956 0.592 2.0399-1.1926 1.6706-5.4766 8.2016-7.332 6.7885-1.9285-0.2733 1.0451-0.052 2.1754 0.4928 2.5118 0.6342 0.392 0.4905 2.2699-0.4001 5.2291-2.0899 6.9443 1.1322 8.336 4.5432 1.9624 0.7587-1.4176 1.8231-2.5774 2.3654-2.5774s0.212 0.8553-0.7341 1.9007c-1.1833 1.3076-1.3726 2.1155-0.6064 2.5891 0.6646 0.4107 0.7622 1.1564 0.242 1.8492-0.4794 0.6386-0.9264 2.286-0.9935 3.661-0.1045 2.1436 0.02 2.2505 0.8728 0.75 1.3798-2.4276 3.1759-2.2097 2.3829 0.2891-0.5612 1.7681-0.3189 1.9567 1.8235 1.419 1.496-0.3755 2.7719-0.1327 3.2343 0.6154 0.4678 0.757 0.3514 0.9808-0.3007 0.5778-1.8792-1.1614-4.454 0.3917-3.1848 1.921 0.8599 1.036 0.3047 2.0467-2.456 4.4706-2.318 2.0352-3.5025 3.9124-3.3826 5.3607l0.1845 2.2288 4.0471-2.2117c2.2259-1.2164 5.1685-2.5486 6.5392-2.9604 3.9668-1.1918 0.8022 1.9768-4.5731 4.5789-2.4304 1.1766-4.419 2.5491-4.419 3.05s-0.4766 0.9108-1.0591 0.9108c-0.5824 0-0.8125-0.3988-0.5112-0.8863s-0.3917-1.132-1.5399-1.4323c-1.1482-0.3002-1.8172-0.2754-1.4866 0.0552s-0.1163 1.3938-0.9931 2.3627l-1.5942 1.7616 2.0973-0.5485c1.1536-0.3016 2.7413-0.0141 3.5282 0.639 1.626 1.3494 5.5586-0.1739 5.5586-2.1533 0-0.6223 0.27-0.8614 0.6001-0.5313s0.2212 1.1926-0.2419 1.9167c-1.1373 1.778-3.2271 7.8165-2.7052 7.8165 0.2295 0 1.5265-0.7267 2.8821-1.615 2.8511-1.8681 3.2735-3.5455 0.7149-2.8389-0.9625 0.2658-0.3156-0.1882 1.4377-1.0089 1.7532-0.8206 3.5532-2.1064 4-2.8572 1.2157-2.0431 6.3123-5.1072 6.3123-3.795 0 0.6132-0.4125 1.115-0.9167 1.115-2.1237 0-2.7548 5.3285-0.8561 7.2273l1.8523 1.8523 2.8646-2.0398c5.5705-3.9666 8.699-2.5786 4.1691 1.8495-3.1554 3.0845-5.3828 7.9942-2.9704 6.5471 0.7465-0.4477 1.9452-1.629 2.6639-2.6252s2.1636-1.8112 3.211-1.8112 2.8219-0.9848 3.9433-2.1886c1.4919-1.6014 2.039-1.7892 2.039-0.7 0 0.8187-0.5625 2.0946-1.25 2.8353-0.843 0.9081-0.8655 1.1308-0.069 0.6837 1.8265-1.0255 2.5439 1.0741 1.2296 3.5989l-1.182 2.2707 2.6357-2.4243c3.0663-2.8204 3.4252-2.0249 0.7985 1.7699-1.0105 1.4599-2.1405 3.3294-2.511 4.1544-0.3706 0.825-1.5359 2.85-2.5897 4.5-3.179 4.9778-1.8125 5.4244 4.0923 1.3373 4.0455-2.8002 5.7939-2.1684 2.0861 0.7538-1.7928 1.4129-3.023 2.9518-2.7337 3.4198 0.2892 0.468 0.061 1.1381-0.5067 1.4891-0.568 0.351-0.7851 1.0388-0.4825 1.5284 0.7325 1.1852-1.6854 4.9716-3.1747 4.9716-0.6469 0-1.3771 0.5625-1.6226 1.25s-0.776 0.9445-1.1788 0.5712 0.7339-1.9889 2.5261-3.5902c1.999-1.7861 2.8401-3.1701 2.1761-3.5804-0.5953-0.368-1.6812-5e-3 -2.413 0.8055-3.54 3.9228-4.3318 5.1105-4.3459 6.5193-0.01 0.8385-0.3725 2.0871-0.8091 2.7746-1.3898 2.1889 1.6994 1.3848 4.4388-1.1553 3.2344-2.9991 10.886-6.9754 10.886-5.6572 0 0.538-2.0251 2.165-4.5002 3.6155-4.7349 2.7748-5.0665 4.447-0.8818 4.447 1.375 0 2.2411-0.4189 1.9247-0.9309-0.3165-0.512-0.059-1.2502 0.5726-1.6404 0.6314-0.3902 1.5611 0.0287 2.066 0.9309 0.909 1.6242 3.0023 2.3355 2.6205 0.8904-0.3272-1.2386 1.395-5.7033 2.4651-6.3907 0.5485-0.3524 0.038-0.9452-1.1348-1.3174-3.7471-1.1892-1.7878-3.5419 2.9497-3.5419 1.055 0 1.9182-0.6609 1.9182-1.4686 0-0.9538 0.5782-1.2467 1.6496-0.8356 1.3656 0.524 1.5345 0.1741 0.981-2.0314-0.5447-2.17-0.3239-2.6644 1.1898-2.6644 2.7021 0 4.8625-5.0383 2.6834-6.2578-1.2678-0.7095-1.3617-1.2086-0.4369-2.3229 0.9604-1.1571 0.7397-1.4252-1.1945-1.4511l-2.3724-0.0318 1.803-1.3672c1.3314-1.0096 1.4622-1.4864 0.5-1.8232-0.8978-0.3142-0.5255-1.1168 1.197-2.5807 2.0602-1.7509 2.2474-2.2908 1.0643-3.0688-1.1852-0.7793-1.209-1.2172-0.1367-2.5093 1.3848-1.6685 3.2214-1.2137 2.9804 0.7382-0.3889 3.1502 0.3048 4.5112 2.592 5.0852 3.1107 0.7808 3.2517 2.3435 0.25 2.7699-1.2375 0.1757-2.2569 0.7695-2.2653 1.3195-0.01 0.55-0.3533 1.5314-0.7664 2.1809-1.1511 1.8101 0.9517 2.5421 3.2248 1.1225 1.6983-1.0606 2.3033-0.9855 3.755 0.4661l1.7304 1.7305h-1.7142c-0.9429 0-1.7706 0.45-1.8393 1-0.069 0.55-0.1813 1.4664-0.25 2.0365-0.069 0.57-0.6706 1.3736-1.3374 1.7858-2.0909 1.2922-0.3432 5.1777 2.329 5.1777 2.4938 0 3.3655 2.5028 1.1334 3.2541-0.9908 0.3334-0.9821 0.7453 0.042 1.986 1.0557 1.2793 1.0557 1.6495 0 2.0258-0.7105 0.2531-0.9928 0.7834-0.6274 1.1782 0.3654 0.3949 1.5956 0.2196 2.7338-0.3896l2.0694-1.1075-0.5183 6.7388c-0.285 3.7063-0.8982 6.9808-1.3626 7.2765s-2.4709 2.6752-4.4589 5.2877c-5.2709 6.9267-1.9142 5.9424 3.9729-1.165 4.1504-5.0107 5.2815-5.8303 7.3994-5.3617 3.9477 0.8736 3.9868 1.0483 1.3085 5.8403-2.5518 4.5658-2.4833 7.4252 0.094 3.9011 1.178-1.611 1.62-1.6912 3.002-0.5443 1.3245 1.0993 1.3899 1.6244 0.3582 2.8749-0.9867 1.1959-0.9951 1.6199-0.038 1.942 0.9115 0.3069 0.8195 1.0296-0.3603 2.8301-0.948 1.447-1.3423 3.3825-0.9816 4.8195 0.4683 1.866-0.3991 3.6185-3.8897 7.8586-4.6499 5.6481-5.8574 10.377-3.2107 12.573 0.9682 0.8036 1.5889 0.3702 2.5369-1.7715 0.6902-1.5594 2.5457-3.3699 4.1232-4.0234 3.0278-1.2541 7.9069-1.0727 7.0581 0.2625-0.275 0.4325 0.146 1.1857 0.9357 1.6738 1.1153 0.6893 1.1738 1.2028 0.2623 2.3011-2.4881 2.9979 3.1892 4.3873 6.6242 1.6211 2.814-2.2661 3.5497-7.6893 1.1753-8.6638-0.3771-0.1548 0.3328-2.3943 1.5774-4.9767s2.0671-5.0122 1.8277-5.3996c-0.2394-0.3873-0.01-0.9676 0.512-1.2896 0.5209-0.322 1.2298-0.1281 1.5753 0.4309 0.9567 1.548 2.5101 1.2121 2.5101-0.5427 0-2.1403 1.9223-0.7755 3.0369 2.1561 0.5025 1.3216 1.6478 2.4029 2.5453 2.4029 1.0238 0 1.4219 0.547 1.0684 1.468-0.7846 2.0448 0.9171 2.8337 3.3287 1.5431 1.6034-0.8581 2.0207-0.7766 2.0207 0.3947 0 2.3452 1.688 2.7633 3.5675 0.8838l1.7288-1.7289 1.4738 2.2197c0.8106 1.2208 1.8382 2.2196 2.2836 2.2196 1.236 0 0.3944-5.3506-0.91-5.7854-1.6542-0.5514-1.4079-3.2146 0.2972-3.2146 2.0087 0 2.9366-1.8402 1.687-3.3458-0.5743-0.6921-0.8068-2.1663-0.5166-3.2761 0.299-1.1432-0.1217-2.5568-0.9707-3.2614-1.3194-1.095-1.2562-1.6539 0.5293-4.6801 2.039-3.4559 4.8301-4.6368 4.8301-2.0436 0 0.7662 0.675 1.652 1.5 1.9686s1.5 0.1398 1.5-0.393c0-0.5327-0.4389-0.9686-0.9753-0.9686-0.627 0-0.6359-0.8925-0.025-2.5 0.5227-1.375 0.6365-2.5 0.2527-2.5s0.1899-0.6087 1.2748-1.3527c1.0848-0.744 2.6475-1.3618 3.4725-1.3728 0.825-0.0111 1.95-0.1306 2.5-0.2657 2.0929-0.5141 3.5 0.0424 3.5 1.3842 0 0.7662 0.725 1.6713 1.6112 2.0113 1.2968 0.4976 1.4912 0.1401 0.9963-1.8317-0.3461-1.3791-0.1295-2.75 0.4955-3.1363 0.7802-0.4822 0.7156-0.9304-0.2173-1.5069-0.7303-0.4514-0.9987-1.1498-0.5964-1.552 0.4022-0.4023 1.3334 0.092 2.0693 1.0984 1.6482 2.254 3.6436 1.2486 2.9309-1.4768-0.3038-1.1615-0.03-1.999 0.6529-1.999 0.6898 0 0.8533-0.5165 0.3955-1.25-2.434-3.9003-0.3889-7.7592 4.1032-7.7422 2.3534 9e-3 4.709 4.1312 3.4888 6.1055-1.1089 1.7943-0.3477 2.6853 3.7608 4.402 2.9914 1.2499 3.357 1.7223 2.3092 2.9848-0.737 0.888-0.8251 1.4999-0.216 1.4999 1.3991 0 0.2168 4.2416-1.5478 5.5526-1.2184 0.9053-1.2111 1.2233 0.053 2.2721 1.2006 0.9964 2.2402 0.5753 5.6849-2.3027 2.3186-1.9371 3.8355-3.5363 3.371-3.5538-0.4646-0.0175 0.029-0.6925 1.0965-1.5 1.0676-0.8075 1.5176-1.4751 1-1.4835-0.5176-8e-3 -0.3069-0.4168 0.4682-0.9075 1.7973-1.1378 4.0907-0.2801 4.0907 1.5298 0 1.7096 2.173 1.82 3.8 0.193 1.6332-1.6332 1.5082-2.8-0.3-2.8-2.2087 0-1.8248-1.7621 0.5479-2.5152 1.1264-0.3575 2.7014-0.1078 3.5 0.555 1.135 0.9419 1.7796 0.9332 2.9521-0.0398 1.8641-1.5471 1.9378-3 0.1521-3-0.8195 0-1.3821-1.2064-1.4353-3.078-0.078-2.7438 3.7509-5.922 7.1344-5.922 1.2462 0 1.3101 4.1927 0.071 4.6682-2.0819 0.7989-1.7353 3.0977 0.5777 3.8318 2.6949 0.8554 2.5387 2.477-0.25 2.596-1.2375 0.0528-0.07 0.6153 2.5939 1.25 2.6641 0.6347 4.5016 1.4915 4.0833 1.904s-0.2907 0.75 0.2836 0.75c0.5744 0 1.6382-0.7156 2.3641-1.5903l1.3198-1.5903 1.2811 1.752c0.7046 0.9636 1.017 2.8042 0.6942 4.0903-0.7775 3.0978 0.5574 2.9621 3.1769-0.323 1.3186-1.6537 2.5912-2.3714 3.361-1.8956 0.9044 0.5589 0.6634 1.1689-0.8925 2.2587l-2.1315 1.4929 1.6125 1.179c2.0923 1.53 0.9885 4.4914-2.1137 5.6709-2.7773 1.0559-2.2697 3.4902 0.9007 4.3193 2.4533 0.6415 4.0838-1.2165 2.6176-2.9831-1.141-1.3748 0.6583-2.2991 3.1957-1.6415 1.1215 0.2906 1.4495 1.1837 1.1021 3.001-0.4235 2.2153-0.2218 2.4811 1.4033 1.8493 3.3622-1.3071 3.9037-1.1318 3.585 1.1604-0.2374 1.7073 0.1847 2.25 1.75 2.25 2.7677 0 2.6988 3.1218-0.1075 4.8743-1.9232 1.2011-1.9849 1.4593-0.5416 2.267 0.8959 0.5014 1.3919 1.5292 1.1023 2.284-0.2897 0.7548-0.016 1.6882 0.6088 2.0742 0.6715 0.415 1.36-0.1567 1.6848-1.3989 0.3021-1.1553 0.9468-2.1681 1.4327-2.2506 2.7462-0.4663 3.3809-0.1567 3.382 1.65 9e-4 1.3122 0.7751 2.1099 2.2514 2.3196 1.7114 0.243 2.25-0.1758 2.25-1.75 0-3.7823 1.7039-2.1404 3.411 3.2867 0.9266 2.946 1.6099 5.7585 1.5184 6.25-0.4822 2.5913 0.2942 2.5744 2.0202-0.0439 1.0651-1.6157 1.6984-3.3229 1.4073-3.7938-0.291-0.4709 0.01-1.5062 0.6696-2.3006 0.9452-1.1389 0.8976-1.5599-0.2252-1.9907-1.0884-0.4177-1.3224-2.0111-0.9927-6.7619 0.526-7.5832 0.3904-7.4254 3.6137-4.2021 1.449 1.4489 3.1842 2.4534 3.8561 2.2322 2.0119-0.6623 2.0963-4.9983 0.1254-6.4395-1.1215-0.82-1.3031-1.306-0.488-1.306 0.7305 0 1.0518-0.6419 0.7348-1.468-0.8045-2.0966 0.9248-2.8141 3.2632-1.3537 2.6099 1.6299 3.1004 0.996 3.7298-4.8206 0.2891-2.6718 0.9375-5.0077 1.441-5.191 0.5034-0.1834 0.9154-0.9709 0.9154-1.75 0-0.7792 0.6382-1.4167 1.4182-1.4167s2.1819-0.2931 3.1154-0.6513c1.3765-0.5282 1.5678-0.2438 1.0128 1.5049-0.462 1.4558-0.2083 2.3389 0.7812 2.7186 0.8226 0.3157 1.7623 2.5416 2.142 5.074 0.5001 3.3349 1.0487 4.3689 2.1035 3.9641 0.7848-0.3011 1.4543-0.2241 1.4879 0.1711 0.769 9.0575 0.2809 14.566-1.3946 15.74l-1.8403 1.2889 2.1349 0.6776c1.9389 0.6154 5.7023-1.1576 4.6631-2.1968-0.7533-0.7533 6.3916-7.2908 7.9682-7.2908 0.8391 0 1.2354 0.4697 0.8806 1.0438s-0.1013 1.6991 0.5634 2.5c0.9464 1.1403 0.9385 1.7816-0.036 2.9562-1.0215 1.2307-0.9474 1.5 0.4127 1.5 1.3792 0 1.467 0.3562 0.5227 2.1207-0.8742 1.6335-0.8577 1.9493 0.072 1.3748 0.8558-0.5289 1.0185-0.1521 0.5591 1.2951-0.7564 2.3832 1.2594 4.1093 2.4843 2.1273 0.6797-1.0998 1.15-1.0649 2.6382 0.1955 2.7435 2.3235 6.102 1.1169 5.0611-1.8183-0.1375-0.3877 0.875-0.9687 2.25-1.291 1.5089-0.3537 2.6189-1.403 2.8001-2.6468 0.2373-1.6296 0.8651-1.9712 3-1.6328l2.6999 0.428-2.3278-1.8892c-2.8218-2.2902-1.0663-4.5714 2.7498-3.5734l2.318 0.6062-1.6477-2.5149-1.6478-2.5148 2.5946-1.7001c1.9664-1.2884 2.3322-2.0164 1.5105-3.0065-1.4626-1.7624-0.3756-4.2413 2.1494-4.9016 1.3644-0.3568 1.8585-1.0659 1.4622-2.0985-0.4593-1.1971 0.092-1.5597 2.3701-1.5597 2.302 0 2.9687 0.4491 2.9687 2 0 1.5556 0.6666 2 3 2 3.5998 0 4.4105 3.8184 1 4.7102-3.6346 0.9505-2.1775 2.5736 1.75 1.9493 2.0625-0.3279 4.425-0.1672 5.25 0.3569 0.9966 0.6332 1.0805 0.9581 0.25 0.9683-1.4878 0.0182-1.6846 3.6287-0.2464 4.5176 0.5521 0.3411 0.7283 1.7177 0.3916 3.059-0.3607 1.4371-0.1763 2.4387 0.4488 2.4387 0.5965 0 0.8947 1.3133 0.6813 3-0.2088 1.65 0.038 3 0.5475 3 0.5099 0 0.9272-0.6447 0.9272-1.4326 0-0.788 0.8687-1.7084 1.9305-2.0453 1.0831-0.3438 2.2153-1.9096 2.5794-3.5674 0.6357-2.8942 2.7648-3.9372 3.9901-1.9547 0.9964 1.6122 1.927 1.177 3.7417-1.75 1.1424-1.8424 1.7138-2.2104 1.7317-1.115 0.015 0.8992 1.1739 2.3868 2.5763 3.3056 1.9576 1.2827 2.3886 2.1784 1.8557 3.8572-0.9667 3.046 2.0894 0.532 3.8608-3.1759 0.6889-1.4421 2.2608-2.7657 3.4931-2.9414 1.2324-0.1758 2.2407-0.9633 2.2407-1.75 0-0.7868 0.45-1.4305 1-1.4305 1.756 0 1.0733 5.7613-1.124 9.4855-2.1571 3.656-1.8814 6.0902 0.3843 3.3924 0.6818-0.8118 2.0921-2.1255 3.1339-2.9191l1.8943-1.4431-0.685 2.158c-0.8784 2.7677 0.5265 3.6075 3.8933 2.3275l2.6647-1.0131-0.6393 2.9107c-0.6868 3.1268 0.2911 4.4526 2.3469 3.1821 1.8208-1.1254 2.244-8.0809 0.4916-8.0809-1.6092 0-1.8074-1.6059-0.3122-2.53 0.7253-0.4482 0.7103-1.0557-0.049-1.97-3.4227-4.1241 1.7753-2.2368 5.4243 1.9695l4.135 4.7664 1.3428-1.618c0.9851-1.1869 1.0216-1.6179 0.137-1.6179-0.6632 0-1.0222-0.5507-0.7979-1.2238 0.2244-0.6731-0.1651-2.3283-0.8655-3.6783-0.7003-1.35-1.0429-2.8274-0.7612-3.2833 0.2817-0.4558-0.1701-1.0906-1.0041-1.4106-1.2216-0.4687-1.2873-0.9485-0.3384-2.468 0.9098-1.4568 0.8991-2.1649-0.047-3.111-1.6457-1.6458-1.5456-2.825 0.2399-2.825 0.8056 0 1.923 0.7875 2.4831 1.75 0.56 0.9625 1.7059 2.6304 2.5464 3.7065l1.5281 1.9565 1.5641-2.2331c0.8602-1.2281 2.3085-2.1085 3.2184-1.9564 1.2518 0.2092 1.7966-0.7529 2.2394-3.9549 0.7263-5.2516 1.5718-6.1722 3.3946-3.6956l1.4182 1.927 0.6382-1.6452c0.351-0.9048 0.2015-3.3798-0.3323-5.5-2.298-9.128 0.1533-13.951 4.1196-8.1048 1.229 1.8113 1.7792 2.0063 2.822 1 0.7995-0.7715 0.8795-1.25 0.2089-1.25-1.4613 0-2.2252-5.6884-0.9369-6.9766 0.6978-0.6979 0.4436-1.0234-0.7991-1.0234-1.4605 0-1.5885-0.2819-0.6445-1.4193 0.9271-1.1171 0.8194-1.6199-0.506-2.3616-1.1931-0.6677-1.3422-1.1535-0.5116-1.6668 0.6447-0.3985 1.8078-0.197 2.5846 0.4477 1.819 1.5097 3.7401 0.3318 3.0426-1.8657-0.3897-1.2279 0.3595-2.0444 2.7093-2.9525 2.8653-1.1074 3.0394-1.376 1.477-2.28-2.1501-1.2441-1.3566-2.9018 1.3891-2.9018 1.1 0 1.7219-0.45 1.382-1-0.3769-0.6098 1.1285-1 3.8576-1 2.4616 0 4.6302 0.4635 4.819 1.0299 0.2085 0.6257 1.7285 0.3313 3.8728-0.75 3.7798-1.9062 4.2892-4.6966 1.0137-5.5531-2.4223-0.6335-1.8763-5.9376 0.9201-8.9392 1.1092-1.1906 2.0168-2.5299 2.0168-2.9762s0.4981-0.8114 1.107-0.8114c0.6088 0 0.8479 0.675 0.5313 1.5-0.319 0.8315-0.028 1.5 0.6525 1.5 1.953 0 4.1603 4.1032 2.6946 5.009-2.1169 1.3083 0.788 2.1826 3.1146 0.9375 1.6531-0.8847 1.9712-0.8708 1.3954 0.0609-0.5335 0.8631-0.1406 1.0148 1.3793 0.5324 2.6314-0.8352 2.8442 1.0612 0.3753 3.3429-2.7273 2.5204-2.9576 6.4766-0.3285 5.6422 2.3393-0.7425 3.1507 3.6944 0.927 5.0687-0.8062 0.4983-0.6353 1.0891 0.5697 1.9703l1.7213 1.2586-1.629 0.9117c-1.49 0.8338-0.964 4.0752 1.1605 7.151 0.719 1.041 5.2966-4.6772 5.3117-6.6352 0.01-1.2375 0.5443-2.25 1.1885-2.25s1.892-0.6522 2.7729-1.4494c2.1256-1.9237 5.0079-0.4026 3.2502 1.7152-0.6473 0.78-0.8434 1.7518-0.4357 2.1595 0.4078 0.4078 0.7414 1.2664 0.7414 1.908 0 0.6417 0.5625 1.2229 1.25 1.2917 3.5481 0.3548 3.6881 0.4855 1.9401 1.8108-1.1437 0.8672-1.4198 1.6133-0.75 2.0272 1.7824 1.1016 1.1812 2.537-1.0626 2.537-1.6864 0-1.8882 0.2822-0.9825 1.3735 0.8939 1.0771 0.5896 1.7342-1.4094 3.044-1.4022 0.9187-2.2677 2.1262-1.9234 2.6833 1.3747 2.2243-0.5448 5.8992-3.0813 5.8992-1.422 0-2.4809 0.579-2.4809 1.3565 0 0.864 1.0883 1.3178 2.9977 1.25 1.6733-0.0595 2.9987-0.6587 3-1.3565 0-0.6875 0.6405-1.25 1.4205-1.25s2.2023-0.3009 3.1607-0.6687c1.4092-0.5407 1.634-0.2538 1.1754 1.5-0.7447 2.8477-0.1462 2.7358 2.6298-0.4915 2.4966-2.9025 4.738-2.523 3.9054 0.6612-0.2876 1.0995-0.071 1.999 0.4821 1.999 1.2277 0 1.1595 9.2537-0.074 10.116-0.8377 0.5853 1.1981 4.884 2.313 4.884 0.2911 0 2.3115-2.25 4.4898-5 3.672-4.6357 6.5-6.376 6.5-4 0 0.55-0.45 1-1 1s-1 0.45-1 1 0.7875 1.0069 1.75 1.0153c1.5101 0.0132 1.5443 0.1607 0.25 1.0761-1.3334 0.943-1.3334 1.0174 0 0.67 0.825-0.2149 1.9442-1.3742 2.4871-2.5761s1.8355-2.1853 2.8724-2.1853c1.603 0 1.6894 0.2361 0.5772 1.5762-1.0841 1.3063-1.0623 1.7318 0.1276 2.4847 1.1697 0.7401 1.1814 0.9113 0.063 0.9238-1.124 0.0125-1.1404 0.2949-0.091 1.5596 1.0717 1.2913 0.9252 1.794-0.8942 3.0684-1.1968 0.8383-1.9169 1.9433-1.6002 2.4557 1.1143 1.8032 2.9812 0.8705 5.2417-2.6187 2.6145-4.0355 4.7958-3.7961 2.6741 0.2935-0.9117 1.7575-1.0635 3.0515-0.4319 3.6831 1.4409 1.4409 1.1833 2.5737-0.5853 2.5737-0.8574 0-1.2809 0.45-0.9409 1 0.3399 0.55 0.2539 1.0003-0.191 1.0007-0.445 4e-4 -0.8758 1.1548-0.9573 2.5654-0.082 1.4106-0.9816 3.1959-2 3.9675l-1.8517 1.4028 1.6851 0.0318c0.9268 0.0175 2.9518-1.7586 4.5-3.9469 1.5482-2.1882 3.3774-3.9882 4.0649-4 1.7442-0.0297 1.5655 1.6437-0.25 2.3403-0.825 0.3166-1.5 1.1298-1.5 1.807 0 0.9578 0.2666 0.9647 1.2 0.0314 2.2689-2.269 3.7899-1.3998 3.15 1.8-0.3909 1.9542-0.1956 3 0.5601 3 0.8747 0 0.8702 0.5419-0.018 2.2022-0.8154 1.5235-0.8493 2.312-0.1101 2.5584 1.4007 0.4669-3.7696 9.0153-5.8889 9.7365-1.1081 0.3772-1.4556 1.3392-1.1192 3.0989 0.3759 1.9668-0.3708 3.4312-3.2567 6.3867-2.0595 2.109-3.5234 4.4383-3.2533 5.176 0.3178 0.8676 2.9183-1.1385 7.3638-5.6805 7.2734-7.4312 10.044-11.583 8.9315-13.383-1.0195-1.6496 0.5404-1.3155 2.6123 0.5596 1.5953 1.4437 1.8288 1.4586 1.8288 0.1166 0-0.8469 1.1238-1.7533 2.5-2.0163 2.1208-0.4055 2.5-0.1034 2.5 1.9918 0 2.0745 0.3663 2.3778 2.2897 1.895 1.7777-0.4461 2.3228-0.1357 2.4376 1.3882 0.095 1.2559-0.6401 2.1607-2.0397 2.5119-2.3757 0.5961-3.0047 5.5408-0.9643 7.5811 1.0301 1.0301 5.2767-2.44 5.2767-4.3119 0-1.3669 2.7521-0.8998 3.3131 0.5624 0.3015 0.7856-0.4905 1.9184-1.85 2.6459-1.846 0.988-2.1683 1.6626-1.4424 3.0191 0.7026 1.3127 0.4317 2.084-1.0901 3.104-2.1175 1.4193-3.4915 7.3926-1.9233 8.3617 0.4979 0.3078 0.6518 1.2201 0.342 2.0275-0.3408 0.8882 0.029 1.468 0.9353 1.468 0.8242 0 1.7809-1.125 2.126-2.5 1.2731-5.0724 6.0496-1.7536 5.884 4.0883-0.053 1.8764 0.3639 3.4117 0.9268 3.4117 0.5995 0 0.5078 0.6213-0.2214 1.5-0.7538 0.9082-0.8344 1.5-0.2043 1.5 0.5724 0 1.7549 0.2741 2.6279 0.6091 1.5184 0.5827 4.4119-4.3575 5.0424-8.6091 0.1223-0.825 1.53-1.7294 3.1282-2.0098s2.6808-0.948 2.4058-1.4836-1.2875-0.8404-2.25-0.6774c-2.1598 0.3659-2.1892-0.2294-0.1638-3.3204 0.8724-1.3315 1.3209-2.85 0.9967-3.3746-1.0476-1.6951 0.4928-4.0394 2.2498-3.4239 1.3576 0.4756 1.4351 0.3338 0.4173-0.7631-2.9154-3.1421 1.8764-3.7763 5.1843-0.6862 1.3689 1.2788 0.9235 4.739-0.61 4.739-0.5183 0-0.6461 0.4793-0.2841 1.0651 0.4434 0.7175 1.1972 0.6003 2.309-0.3589 2.4831-2.1422 6.1508-2.8057 6.1508-1.1126 0 0.7735 0.5625 1.4207 1.25 1.4382 1.2676 0.0323-1.5549 2.5662-3.6418 3.2695-0.7751 0.2612-0.7273 0.8351 0.159 1.9093 1.3029 1.5791 0.7169 4.7894-0.8742 4.7894-1.8452 0-0.859 4.1961 1.107 4.7102 1.1 0.2877 2 1.1456 2 1.9064 0 1.8811 3.9678 1.7689 4.125-0.1166 0.069-0.825 0.2375-1.95 0.375-2.5s0.3062-1.7053 0.375-2.5674c0.085-1.0716 0.7309-1.375 2.0408-0.9593 2.198 0.6976 3.9525-1.3186 2.1284-2.4459-0.8909-0.5507-0.7954-0.9089 0.3607-1.3526 1.237-0.4746 1.3669-1.1447 0.6086-3.1391-0.8231-2.1651-0.6852-2.5357 0.9438-2.5357 1.0494 0 2.1935 0.9 2.5427 2 0.3491 1.1 0.9821 2 1.4066 2 0.9211 0 0.7288-5.1628-0.2513-6.7487-0.3784-0.6122-0.2617-1.3765 0.2593-1.6985 0.5209-0.322 1.2433-0.1062 1.6053 0.4795 0.9145 1.4796 3.4801-0.7561 3.4801-3.0328 0-0.9655 1.0063-2.4237 2.2362-3.2404 1.8273-1.2133 2.0118-1.7553 1.0087-2.964-0.6752-0.8135-0.9612-1.7455-0.6357-2.071s-0.3534-1.6065-1.5087-2.8466c-3.7898-4.0678-0.9806-5.7575 2.9828-1.7942 1.1458 1.1459 2.3505 1.8162 2.677 1.4897s-0.2735-1.2497-1.3333-2.0515c-1.0599-0.8019-1.3928-1.4722-0.7399-1.4897 0.7944-0.0213 1.0002-1.1837 0.622-3.5141-0.4294-2.646-0.1755-3.6317 1.0572-4.1048 0.8922-0.3423 1.3991-0.9833 1.1265-1.4244s0.5175-0.5409 1.7558-0.2218c1.936 0.4989 2.0738 0.3635 0.9841-0.9665-1.2588-1.5365-0.7372-4.8002 0.7673-4.8002 0.8201 0 2.0911 2.4385 2.5966 4.9818 0.1619 0.8151 0.769 1.6401 1.3489 1.8334s1.0545 1.0155 1.0545 1.8271c0 0.8117 0.45 1.1976 1 0.8577s1 0.3182 1 1.4624c0 1.3166 1.0096 2.5141 2.75 3.2615 1.5125 0.6496 2.9116 1.289 3.1091 1.421s-0.6185 1.6128-1.8133 3.2907-1.8935 3.5018-1.5528 4.0532c0.3408 0.5513-0.588 2.1215-2.064 3.4894l-2.6835 2.4869 1.805 0.6927c1.2508 0.4799 2.2483 0.0248 3.2491-1.4826 0.7944-1.1964 2.4663-2.1752 3.7153-2.1752 2.4605 0 3.8945 2.1905 2.4076 3.6775-1.0895 1.0895-1.5236 8.541-0.586 10.058 0.3586 0.5802 0.048 1.2867-0.6907 1.5701-1.6655 0.6391-5.6941 7.3127-4.8961 8.1107 2.7415 2.7415 8.9622-1.3507 7.5807-4.9869-0.2236-0.5888 1.2306-1.573 3.2316-2.1872l3.6383-1.1166-0.5063 1.9361c-0.2784 1.0649-0.077 2.2017 0.4484 2.5262 0.5746 0.3551 0.4633 1.1821-0.2796 2.0772-0.9893 1.1921-0.9503 1.6627 0.1966 2.3715 1.1905 0.7358 1.0957 1.154-0.5643 2.4894l-1.9951 1.6051 2.5-0.437c1.375-0.2403 3.3103-0.7768 4.3008-1.1921 1.5463-0.6484 1.7076-0.3839 1.1416 1.8714-0.3707 1.477-0.2367 2.6265 0.3063 2.6265 1.3366 0 1.2414 11.337-0.1024 12.196-0.5986 0.3826-0.7584 1.0257-0.3551 1.429 0.4034 0.4033 2.0875-0.2678 3.7425-1.4914 3.2174-2.3787 5.9625-2.0384 3.8724 0.48-1.647 1.9844-0.5105 2.7807 2.0289 1.4216 2.7974-1.4972 4.7597-0.2662 2.3748 1.4898l-1.8098 1.3326 1.8903 0.7322 1.8903 0.7323-1.7001 1.2431c-1.0834 0.7922-1.3157 1.4808-0.6403 1.8982 1.6971 1.0489 1.2313 2.2589-1.1047 2.8698-1.678 0.4388-1.9142 0.8675-1.0508 1.9078 1.3579 1.6361-1.8445 4.0574-4.1806 3.161-1.1131-0.4271-1.4535 0.1903-1.3874 2.5162 0.098 3.4567 1.2688 3.8313 4.6255 1.4802 2.7171-1.9031 4.0508-1.0576 2.4288 1.5397-1.5925 2.55-0.4986 3.2575 2.251 1.4559 1.6941-1.11 2.481-1.1978 3.0135-0.3361 0.3964 0.6413 0.2592 1.4533-0.3049 1.8043s-0.932 2.2132-0.8175 4.1382c0.1144 1.925-0.2692 4.3149-0.8525 5.3109-0.8384 1.4315-0.6416 2.1164 0.9394 3.269 1.1 0.8019 2.6966 2.0423 3.5481 2.7564 1.874 1.5717 4.038 1.0516 3.3275-0.7998-0.2815-0.7338-0.028-1.6334 0.5639-1.9991 1.2248-0.757-1.0571-3.5374-2.9033-3.5374-0.7842 0-0.805-0.5636-0.071-1.9343 1.5193-2.8387 1.272-6.0657-0.4648-6.0657-0.825 0-1.5-0.45-1.5-1s0.3778-1 0.8395-1 1.3521-1.125 1.9785-2.5c1.5084-3.3105 2.7578-3.1556 4.0322 0.5 2.2952 6.5842 7.6687 0.4291 7.6109-8.718-0.032-5.0955 0.2701-6.24 1.75-6.627 1.0353-0.2707 1.7889-1.3954 1.7889-2.6698 0-1.8765 0.3874-2.1048 2.6208-1.5442l2.6208 0.6577-0.562-2.2993c-0.3121-1.277 0.071-3.1522 0.8623-4.2174 1.0261-1.3818 1.1263-2.2769 0.3584-3.2021-1.6618-2.0023 1.8919-6.0466 5.3131-6.0466 2.6855 0 3.2143 0.7875 3.0375 4.5234-0.047 0.9916 0.2335 1.0589 1.0424 0.25 1.7964-1.7964 2.9825-1.2694 2.3747 1.055-0.8483 3.2438 0.8826 5.7686 3.4876 5.0874 1.8296-0.4785 2.0619-0.2622 1.439 1.3402-0.835 2.1478-0.8792 2.4062-0.713 4.1607 0.1878 1.9821 2.1184 1.4505 2.1184-0.5833 0-1.0084 0.2961-2.1295 0.658-2.4914 0.9999-0.9998 3.342 1.3361 3.342 3.3332 0 1.6463 5.3043 4.9915 7.9147 4.9915 1.2879 0 4.8056 1.8738 7.3414 3.9105 0.9659 0.7758 2.0779 1.0889 2.4711 0.6957s0.1-1.0951-0.6519-1.5597c-0.7517-0.4645-1.092-1.5605-0.7563-2.4354 0.4289-1.1177-0.1204-1.7741-1.8474-2.2076-1.3518-0.3393-2.2128-1.0132-1.9135-1.4975 0.5331-0.8626-0.2093-2.0198-3.8823-6.0519l-1.8242-2.0025 2.0742-0.5424c1.1408-0.2984 2.0742-1.2167 2.0742-2.0408 0-1.32 0.2679-1.3245 2.25-0.0378 4.9989 3.2449 9.4506 2.8949 5.2459-0.4125-9.6081-7.5577-9.7729-15.206-0.235-10.908 2.3315 1.0506 6.4891 2.1329 9.2391 2.4052l5 0.4952-2.75-2.1929c-1.5125-1.206-2.75-2.7333-2.75-3.3938 0-1.6924-3.1923-5.2239-4.7222-5.2239-1.6238 0-1.6358-1.2384-0.028-2.8623 1.0012-1.011 0.9017-1.4588-0.5-2.2497-2.0776-1.1722-2.3377-3.888-0.3724-3.888 0.7576 0 1.9377 0.675 2.6224 1.5 1.37 1.6508 4 2.0333 4 0.5818 0-0.505 0.2731-1.63 0.607-2.5 0.4174-1.0877 0.027-1.5917-1.25-1.6136-3.1025-0.0531-5.7948-2.7966-5.857-5.9682-0.033-1.7023-0.8673-3.5481-1.9659-4.3514l-1.908-1.3952 2.178-0.6912c2.5528-0.8102 4.1959-0.0283 4.1959 1.9968 0 0.7926 0.675 1.441 1.5 1.441s1.5 0.45 1.5 1 0.9141 1 2.0314 1c1.1172 0 2.277 0.6402 2.5773 1.4227 0.8572 2.2338 3.253 2.7646 2.6857 0.5949-0.2733-1.0448 0.4202-2.7322 1.6131-3.9252 1.1509-1.1508 1.6906-2.0924 1.1995-2.0924-1.8227 0-2.1209-3.2694-0.4121-4.5188 1.3789-1.0084 1.4856-1.5588 0.526-2.715-0.6619-0.7976-0.9075-1.7463-0.5456-2.1082s-0.3328-0.658-1.5438-0.658h-2.2019l1.2477-2.25c0.6862-1.2375 1.152-2.5875 1.0352-3-0.4171-1.4724 1.5093-0.7149 3.3475 1.3163l1.8699 2.0662 1.3108-1.7925c1.1296-1.5449 0.9963-2.0346-0.965-3.5441-1.8464-1.4211-1.9567-1.7556-0.5847-1.7737 2.8642-0.0376 3.2305-2.1937 0.7028-4.1372-1.795-1.3801-1.9904-1.8461-0.7813-1.8628 1.1214-0.0154 1.529-0.7823 1.3385-2.5179-0.1507-1.3726 0.1581-2.7627 0.6861-3.089 0.5882-0.3636 0.5065-1.1398-0.211-2.0043-0.9754-1.1753-0.4922-1.411 2.8924-1.411 2.2349 0 4.405 0.5526 4.8225 1.2281 0.6876 1.1126 0.9117 5.4124 0.3138 6.0219-0.1349 0.1375-0.3379 2.1704-0.4511 4.5175l-0.2059 4.2674 2.4319-1.5934c1.3522-0.886 3.173-1.2933 4.1011-0.9173 1.4032 0.5684 1.2836 0.8244-0.7503 1.6064-1.8756 0.7212-2.151 1.1989-1.2251 2.1248 0.8896 0.8896 1.6504 0.9098 2.9803 0.0793l1.7857-1.1152-0.4395 2.9943-0.4395 2.9944 2.2362-1.1967c1.4907-0.7979 2.5695-0.8634 3.2361-0.1968 0.6667 0.6667 0.3392 1.3537-0.9824 2.061-2.2552 1.2069-3.4433 4.5133-2.1034 5.8532 0.5301 0.5301-0.1314 1.8642-1.6157 3.2587-2.994 2.8127-3.1848 4.0124-0.6382 4.0124 2.1004 0 2.631 4.1092 0.9439 7.3107l-0.9542 1.8106 2.8905-1.4947c3.7315-1.9296 5.6095-4.2276 4.6817-5.7286-0.5314-0.8599-8e-4 -1.0053 1.9139-0.5248 1.961 0.4922 2.6492 0.285 2.6492-0.7974 0-0.8043 0.967-2.1397 2.1488-2.9675l2.1489-1.5051-1.6719-2.5516c-1.4547-2.2201-1.474-2.5516-0.1489-2.5516 0.8377 0 1.5575-0.3375 1.5996-0.75 0.5027-4.9273 1.659-6.3322 3.3305-4.0463 0.8389 1.1472 2.0018 1.5022 3.5746 1.0909 1.7635-0.4612 2.1332-0.2894 1.5184 0.7054-0.6062 0.9809-0.2649 1.1718 1.3436 0.7511 2.3874-0.6243 2.9228 1.0825 0.9564 3.0489-0.66 0.66-0.8153 1.2-0.345 1.2 0.4702 0 0.038 0.9028-0.9605 2.0061-2.0595 2.2757-2.1389 2.1303 2.356 4.3135l3.3506 1.6274 0.5161-1.9735c1.0588-4.0488 2.8539-1.7485 2.4723 3.168-0.07 0.9028 0.6878 1.8547 1.6843 2.1153 1.7494 0.4574 2.2959 3.9068 0.8484 5.3543-0.3585 0.3585-0.2164 1.4654 0.3157 2.4597 1.0903 2.0373-0.2917 3.5084-2.1924 2.3337-0.6891-0.4259-0.8841-0.2759-0.4837 0.3719 0.369 0.597 0.2123 1.3688-0.3482 1.7152-0.6887 0.4257-0.6777 1.2674 0.034 2.5971 1.3128 2.453 2.2561 1.8986 4.3778-2.5726 0.9177-1.9338 2.0709-3.5161 2.5626-3.5161 1.6968 0 2.3137 2.3065 0.9098 3.4017-1.4443 1.1268-1.9959 7.5983-0.6477 7.5983 0.4125 0 0.75-0.8734 0.75-1.941 0-3.2997 1.8239-3.2876 4.7898 0.0317 2.4891 2.7859 3.1092 3.0337 5.0249 2.0085 1.2307-0.6587 2.1853-0.7538 2.1853-0.2177 0 0.5235-0.5625 1.1788-1.25 1.4562-1 0.4035-1 0.5202 0 0.5834 0.6875 0.0434 2.0656-0.7367 3.0625-1.7336s2.3056-1.6481 2.9084-1.4472c1.6599 0.5533 2.6-1.6487 1.3479-3.1574-0.6068-0.7311-0.8224-2.0614-0.4791-2.9561 0.4066-1.0595 0.098-1.6268-0.8849-1.6268-0.83 0-1.9798-1.35-2.555-3-1.1892-3.4114-0.2502-3.9917 1.6181-1 1.9826 3.1746 3.2321 2.3422 3.2321-2.153v-4.153l2 2.306c2.2608 2.6067 2.4746 4.2448 0.9304 7.1301-1.7316 3.2354 2.8012 8.4376 7.4671 8.5698 1.9814 0.0562 3.6025-0.3033 3.6025-0.7989 0-0.4955 1.0561-0.901 2.347-0.901 2.9809 0 7.1006 3.4667 6.0808 5.1169-0.5234 0.8467-0.244 1.0265 0.9082 0.5844 1.987-0.7625 4.8649 0.1646 4.1419 1.3344-0.2808 0.4544-3e-3 1.1399 0.6176 1.5233 0.6205 0.3835 1.5209 0.0771 2.001-0.6809 1.0093-1.5935 1.1094-1.4005 1.3186 2.5425 0.2248 4.2367 4.0135 4.4926 8.5849 0.5798 4.1794-3.5772 4.3638-3.5996 6.932-0.843l2.01 2.1574 0.6926-1.8049c0.3809-0.9926 0.2438-2.9937-0.3046-4.4467-1.3937-3.6922 0.0502-6.1895 4.9509-8.5632 4.2815-2.0737 6.0621-4.5 3.3024-4.5-1.7786 0-2.0587-1.1234-0.6357-2.55 0.5211-0.5225 1.1286-2.7204 1.3499-4.8843 0.4294-4.1988 1.9066-5.3665 6.9525-5.4954 1.7465-0.0446 2.75-0.6176 2.75-1.5703 0-0.825-0.4763-1.3875-1.0585-1.25-0.5821 0.1375-1.6459-1.4135-2.3638-3.4467l-1.3054-3.6967 2.6-0.3033c2.0155-0.2351 2.6031-0.8613 2.6138-2.7854 0.01-1.7006 0.6437-2.5849 2.0139-2.8086 4.1544-0.678 4.4231-0.9905 3.53-4.1048-1.2051-4.2019 1.3298-6.4636 3.6044-3.2161 1.2249 1.7487 1.8385 1.964 2.9557 1.0368 1.9305-1.6021 1.8003-2.2119-1.1518-5.3973-1.4112-1.5227-2.3092-3.422-1.9995-4.2291 0.7524-1.9606 2.8292-1.183 4.0483 1.5159 0.5429 1.2019 1.5554 2.1853 2.25 2.1853 1.7705 0 1.5714-1.0516-0.4871-2.5724-1.4021-1.0359-1.5015-1.5449-0.5-2.5603 1.598-1.6201 1.598-2.8625 0-2.8846-0.6875-0.01-2.2997-1.124-3.5826-2.4768l-2.3326-2.4595 3.502-1.67c3.0793-1.4684 3.3941-1.9541 2.6074-4.0232-1.0387-2.7321-1.1695-2.6763 2.9275-1.2481 2.4735 0.8623 3.5501 0.8073 4.8992-0.25l1.7291-1.3551-1.4076 1.7924c-1.7906 2.28 0.1114 4.9038 2.1076 2.9076 1.8803-1.8803 3.0013-1.4096 2.2535 0.9464-0.5608 1.7671-0.3438 2.0582 1.2282 1.6471 1.3032-0.3408 2.249 0.2203 2.9791 1.7676l1.0698 2.2669-3.3653 0.6313c-3.8475 0.7218-4.2949 1.9728-1.2821 3.5852 1.639 0.8772 2.4554 0.7781 3.8287-0.4648 1.9267-1.7436 4.5683-2.1658 3.5837-0.5726-0.3423 0.5538 0.0786 1.276 0.9353 1.6048 2.0836 0.7995 0.9817 2.3881-1.6566 2.3881-1.1592 0-1.8488 0.2589-1.5324 0.5753s0.1979 1.8914-0.2635 3.5c-0.4984 1.738-0.4614 2.9247 0.0914 2.9247 1.8479 0 0.8803 3.2003-1.1264 3.725-1.3299 0.3478-1.8514 1.0725-1.4758 2.051 0.3193 0.8323-0.1775 2.3509-1.104 3.3748-2.5965 2.869-0.8994 3.299 2.7126 0.6873 3.8859-2.8099 10.924-9.9224 10.924-11.04 0-0.4392 0.9-0.7986 2-0.7986 2.3351 0 2.6807 1.8015 0.5057 2.6362-0.8218 0.3153-1.2452 0.9762-0.9409 1.4686s0.0216 0.8952-0.6282 0.8952c-0.8486 0-0.8081 0.4499 0.1437 1.5968 1.1182 1.3473 1.0559 1.7475-0.3986 2.5614-0.9481 0.5306-1.4452 1.4154-1.1048 1.9663 0.8712 1.4095-2.5103 4.8755-4.7566 4.8755-1.0743 0-2.2742 1.0636-2.8203 2.5-0.9813 2.581-3.3733 3.3231-4.5539 1.4129-1.8273-2.9567-4.8712 9.4126-3.7542 15.256 0.7545 3.9469 10.265 7.952 9.947 4.1888-0.0845-0.9989 1.0364-2.0371 2.8611-2.6499 3.6836-1.2372 4.3294-2.1494 3.7324-5.2723-0.3403-1.7804-0.0241-2.4354 1.1758-2.4354 1.9453 0 3.6749 3.9663 2.9456 6.755-0.7925 3.0306 3.4769 3.8206 4.6055 0.8521 0.8662-2.2783 8.1509-10.607 9.2774-10.607 0.3412 0 1.3276 0.7071 2.1919 1.5714s1.5783 1.2018 1.5867 0.75c0.0464-2.4908 1.8405-3.6859 3.4847-2.3214 1.404 1.1652 1.7867 1.1555 2.5457-0.0643 0.6865-1.1033 1.3067-1.1797 2.6791-0.33 1.286 0.7962 2.2663 0.8025 3.503 0.0224 2.3654-1.492 5.0601 0.9108 2.7638 2.4644-1.2581 0.8513 1.618 0.8279 6.727-0.0547 0.1203-0.0208-0.0229-0.6673-0.3182-1.4366-0.2952-0.7694-0.0561-1.696 0.5314-2.0591s1.0682 0.0414 1.0682 0.8989c0 0.9223 0.8668 1.559 2.1224 1.559 1.6477 0 1.8767-0.2961 1.0238-1.3238-1.4515-1.7489 0.4246-3.6762 3.5786-3.6762 2.7066 0 4.7231-4.0793 3.8116-7.711-0.6703-2.6707 1.0493-3.0437 4.0196-0.8717 1.3876 1.0146 2.3005 1.1168 3.213 0.3595 1.0058-0.8348 0.8511-1.3546-0.7336-2.4646-2.5206-1.7654-2.2408-7.8962 0.3502-7.6733 1.3622 0.1172 2.0296-1.2515 1.7992-3.6898-0.1515-1.6034 3.8819-2.9389 4.4449-1.4718 0.3213 0.8375 1.4361 1.5227 2.4773 1.5227 2.1682 0 2.431 1.062 0.693 2.8-0.9333 0.9333-0.9333 1.2 0 1.2 0.66 0 2.1164-0.9164 3.2365-2.0365 1.12-1.12 2.5167-1.7396 3.1037-1.3768 0.587 0.3627 0.2938-0.5209-0.6515-1.9636s-2.342-2.6231-3.1037-2.6231c-1.7373 0-1.8371-4.3799-0.1322-5.7949 0.8791-0.7295 1.7741-0.6586 3 0.2378 1.899 1.3885 2.3545 3.5571 0.7472 3.5571-0.55 0-1 0.4785-1 1.0634 0 0.5973 1.4244 0.926 3.25 0.75 2.6981-0.2602 3.2096-0.6955 3.0118-2.5634-0.2438-2.3027 1.0906-2.8195 4.1996-1.6264l1.6249 0.6235-1.6981 1.8765c-0.934 1.032-1.2909 1.9139-0.7932 1.9597 0.4978 0.0459 1.805 0.2612 2.905 0.4786 5.238 1.0353 6.9664 0.8962 6.983-0.5619 0.0239-2.107 3.916-1.8821 4.3266 0.25 0.1854 0.9625-0.2627 1.75-0.9957 1.75-1.9293 0-3.7981 3.4075-2.7759 5.0614 0.6962 1.1266 0.9767 1.0638 1.5152-0.3394 0.8224-2.1432 1.8498-2.1761 3.9011-0.1249 0.8784 0.8784 2.3176 1.3207 3.1981 0.9828 0.8806-0.3379 2.2133-0.1063 2.9616 0.5147s2.0413 0.8679 2.8733 0.5487c0.9271-0.3558 1.5127-0.012 1.5127 0.8881 0 1.7234 3.7882 1.95 6 0.3589 1.3235-0.952 1.3197-1.0225-0.0326-0.5994-0.843 0.2637-2.5192-0.3193-3.7249-1.2956l-2.1922-1.7752 2.2248-0.6255 2.2249-0.6255-3-2.4492c-1.65-1.3471-4.5032-3.6701-6.3405-5.1622-1.8373-1.492-5.4145-3.2394-7.9493-3.8831-2.5348-0.6436-4.8055-1.7604-5.0459-2.4817-0.3008-0.9024 0.1185-1.0984 1.3439-0.6281 1.0996 0.4219 2.531 5e-3 3.7414-1.0907 1.0782-0.9758 2.2506-1.6616 2.6054-1.5241 0.3547 0.1375 0.645-0.2363 0.645-0.8306s0.816-1.6773 1.8134-2.4066l1.8134-1.326-2.9943-0.6577c-3.961-0.87-6.2822-3.4758-3.2549-3.6541 5.2273-0.3079 10.395-3.4421 9.6326-5.8428-0.3254-1.0251-0.1232-2.1533 0.4491-2.5071 0.5724-0.3537 1.0407 0.0584 1.0407 0.9159 0 2.0609 0.6112 1.972 4.2484-0.6179l3.0572-2.1769-0.6718 2.6769c-0.7312 2.9132 0.4168 3.5258 2.3169 1.2363 0.6575-0.7923 1.831-1.1967 2.6076-0.8986 0.7767 0.298 2.8254-0.6473 4.5526-2.1007 2.7102-2.2805 3.3631-2.456 4.7648-1.2808 2.2728 1.9055 9.2889 3.8094 10.564 2.8668 2.2649-1.6738 6.3241-1.1561 6.8551 0.8743 0.3267 1.2494 0.0207 1.9796-0.8297 1.9796-0.7411 0-1.6263 0.4513-1.9672 1.0029-0.3867 0.6257 0.9078 0.8822 3.441 0.6818 4.3714-0.3458 4.6736-0.0738 2.7406 2.4671-0.8435 1.1086-2.1501 1.481-3.974 1.1323-2.8564-0.546-6.0929 1.2805-5.1041 2.8805 0.3188 0.5159-0.5861 2.0184-2.011 3.3389-4.6014 4.2644-2.8246 7.7574 2.5757 5.0634 1.7275-0.8618 3.7945-1.5669 4.5933-1.5669 0.7989 0 2.3408-1.1293 3.4265-2.5095 1.0857-1.3803 2.3879-2.2537 2.8939-1.941 1.4823 0.9161 1.0559 8.1717-0.5762 9.8038-2.5961 2.596-3.6096 6.3922-1.8834 7.0546 0.8284 0.3179 1.2578 0.98 0.9541 1.4713-0.3036 0.4914 0.3537 1.1303 1.4609 1.4198 2.3642 0.6183 8.9645-1.0189 8.9645-2.2236 0-1.3308-2.6669-3.1714-4.1447-2.8605-2.3115 0.4862-1.4995-3.4324 0.8947-4.3181 2.9282-1.0832 2.9282-0.1256 0 1.1403-1.932 0.8353-1.8143 0.8954 0.8325 0.4252 1.6954-0.3012 4.9127-0.1364 7.1495 0.3661 5.5071 1.2374 7.6377-0.1397 4.4072-2.8487-1.2984-1.0888-2.9859-1.9797-3.75-1.9797s-1.3892-0.3375-1.3892-0.75 1.35-0.75 3-0.75c2.1905 0 3 0.4722 3 1.75 0 0.9625 0.5625 1.7602 1.25 1.7727s1.9628 1.475 2.834 3.25c1.1103 2.2621 2.3989 3.3236 4.309 3.5494 2.7629 0.3266 2.9954 0.6336 4.0084 5.2921 0.9255 4.2556 5.1799 2.8778 4.9689-1.6091-0.0867-1.8436-0.4431-3.8139-0.792-4.3784-1.5814-2.5588 3.3334-3.1912 5.0026-0.6436 0.907 1.3843 2.2724 2.5169 3.0341 2.5169 0.7618 0 1.385 0.675 1.385 1.5 0 1.8278 1.7315 1.9102 5.2517 0.25 2.2126-1.0435 2.5689-1.7456 2.157-4.25-0.2713-1.65-0.6203-3.8483-0.7754-4.885-0.1552-1.0368-1.0819-2.4699-2.0594-3.1846-0.9775-0.7148-1.8441-2.4328-1.9256-3.8178-0.0912-1.5483-1.0149-2.9132-2.3983-3.5439-2.2302-1.0168-3.1111-3.0687-1.3174-3.0687 0.5129 0 1.2143-0.8874 1.5585-1.9719 0.7436-2.3428 4.5089-0.699 4.5089 1.9683 0 0.8335 1.4088 2.139 3.1307 2.9011 1.7218 0.7622 3.3555 2.2457 3.6303 3.2966 0.6881 2.6312 4.8716 2.074 4.4122-0.5876-0.1797-1.0415 0.1167-2.1676 0.6586-2.5026 1.4277-0.8823 0.1887-6.1039-1.4484-6.1039-0.7609 0-1.3834-0.6053-1.3834-1.345 0-0.7398-0.8697-2.132-1.9326-3.094-1.0629-0.9619-1.7053-2.341-1.4276-3.0646 0.2776-0.7237-0.3361-1.5826-1.3639-1.9088-2.8438-0.9026-2.4674-5.9894 0.4741-6.4071 1.4946-0.2123 2.25 0.1956 2.25 1.2148 0 1.5141 2.8617 3.6047 4.9343 3.6047 0.5861 0 1.0657-0.675 1.0657-1.5 0-2.1882 1.4673-1.8403 4.145 0.9827 2.9276 3.0864 3.864 3.1519 3.8232 0.2673-0.0382-2.7026-1.772-5.1122-4.3854-6.0947-1.3964-0.5251-1.6179-1.0202-0.8153-1.8228 0.8027-0.8027 0.6975-1.7194-0.3871-3.3747-0.8911-1.3599-1.1019-2.5119-0.525-2.8684 1.6132-0.997 4.2458 0.5467 5.1965 3.047 0.6093 1.6028 1.6923 2.3636 3.3643 2.3636 2.8391 0 4.4366-1.8549 2.5838-3-0.6909-0.427-0.9662-1.2456-0.6118-1.8191s0.1797-1.3299-0.3882-1.6809-0.7795-1.0478-0.4701-1.5484c0.3094-0.5007 0.0906-1.7923-0.4864-2.8702-0.6598-1.2329-0.6931-2.1799-0.0899-2.5527 0.5275-0.326 0.7056-1.2533 0.3957-2.0607-0.3433-0.8948 0.0316-1.468 0.9604-1.468 0.838 0 1.6736-0.3804 1.857-0.8453 0.5095-1.2921 5.8333-2.3634 5.8333-1.1738 0 0.5605 0.6329 1.0191 1.4064 1.0191 0.9587 0 1.227 0.7162 0.843 2.25l-0.5634 2.25 1.9298-1.6994c2.6526-2.3359 5.0434-0.9008 3.4523 2.0722-0.6262 1.17-0.8425 2.1272-0.4808 2.1272s0.0884 0.6859-0.6074 1.5242c-1.4659 1.7663-0.9861 2.5243 1.7272 2.7287 3.142 0.2367 4.5678 4.4412 2.0937 6.1741-1.1097 0.7772-1.7153 1.9023-1.3458 2.5002 0.3695 0.5978-0.0318 1.3569-0.8916 1.6868-2.1307 0.8177-1.9637 2.9857 0.4131 5.3625 2.7104 2.7104 1.3604 6.1795-2.8272 7.2646-2.2358 0.5794-3.1493 1.4075-3.1493 2.8549 0 3.0205 10.265-1.581 11.833-5.3046 0.1834-0.4353 0.9158-0.7914 1.6276-0.7914s1.8544-0.675 2.5391-1.5c1.7356-2.0913 3-1.8701 3 0.5248 0 1.2396 0.9694 2.3933 2.5 2.9752 2.3371 0.8886 3.584 4 1.6029 4-0.4933 0-0.7115 2.7115-0.4847 6.0255 0.3229 4.7196 0.0851 6.1511-1.0972 6.6048-0.8302 0.3186-1.243 1.0105-0.9173 1.5375s-0.0917 1.7174-0.9276 2.6452c-1.0152 1.127-1.4107 3.1808-1.1912 6.187 0.4266 5.8416 0.4056 5.7924 1.5952 3.75 1.1377-1.9534 5.0613-2.4234 4.6699-0.5594-0.4906 2.3367 3.2208 2.0117 4.2012-0.3678 2.5265-6.1317 9.3497-9.3972 7.4468-3.5638-0.4021 1.2325-0.821 3.141-0.9309 4.241-0.11 1.1-0.5443 4.5641-0.9651 7.6979l-0.7651 5.698 2.6912 0.6754c1.8414 0.4622 2.5104 1.1466 2.1186 2.1675-0.4457 1.1616 0.067 1.3981 2.3157 1.0681l2.8881-0.4239-0.877 3.0579c-0.5567 1.9411-0.5111 3.1799 0.1248 3.3919 1.4978 0.4992 1.2087 3.1672-0.3433 3.1672-2.0032 0-5.0284 3.6512-3.7036 4.4699 3.264 2.0173 6.104 1.5989 5.4993-0.8103-0.4263-1.6984-0.112-2.5756 1.0875-3.0359 1.3398-0.5141 1.4422-0.9424 0.4977-2.0805-1.8837-2.2697-0.9123-6.0954 1.4641-5.766l2 0.2773-1.8198-1.4385-1.8197-1.4385 1.6103-0.9012c1.7624-0.9863 1.1183-4.2763-0.8372-4.2763-1.4394 0-4.0021-3.9648-3.1279-4.839 0.3544-0.3544 1.0829 0.1394 1.619 1.0973 0.5361 0.958 1.6824 1.7417 2.5474 1.7417 1.1162 0 1.2872-0.3629 0.5891-1.25-1.2838-1.6314-2.2539-8.0618-1.5959-10.578 0.5083-1.9436 4.9532-3.5981 5.8347-2.1718 0.2487 0.4025 1.5437 0.5231 2.8777 0.2681 3.1458-0.6013 4.2755 2.5428 2.311 6.4319-1.8786 3.7193-1.2233 5.1241 2.0962 4.4935 2.2888-0.4349 2.5262-0.2871 1.5121 0.9412-1.1231 1.3602-1.0042 7.4914 0.168 8.6636 0.289 0.289-0.6064 2.0093-1.9897 3.8229-1.554 2.0375-2.603 4.8396-2.7452 7.333-0.2286 4.0088-1.1019 5.1896-2.0678 2.7958-0.2774-0.6875-0.5399-0.1763-0.5834 1.1359l-0.0789 2.3859 4.5829-0.6281c7.0911-0.9719 8.5805-4.5641 4.606-11.109l-1.8006-2.9649 2.3387-2.0351c1.2862-1.1192 2.5497-3.16 2.8077-4.535l3.4653 123.67h-1600zm1074.7 163.19c0.9303-2.4243-0.3678-2.8619-1.6091-0.5426-0.7739 1.4462-0.7892 2.0857-0.05 2.0857 0.5866 0 1.333-0.6944 1.6587-1.5431zm-130.54-24.207c0.2661-6.1756-0.2578-6.9632-3.6142-5.4339-3.2203 1.4673-3.3625 5.2846-0.2542 6.824 3.4199 1.6938 3.7405 1.5786 3.8684-1.3901zm216.35-8.1932c1.5014-2.9036 0.9273-4.5731-1.1145-3.2408-1.4549 0.9493-2.6408 6.184-1.4009 6.184 0.5463 0 1.6782-1.3245 2.5154-2.9432zm-216.1-3.259c-1.2665-2.0492-3.4397-0.7871-2.3027 1.3373 0.8834 1.6507 1.3301 1.8317 1.9692 0.7977 0.4546-0.7355 0.6046-1.6963 0.3335-2.135zm221.25-5.3441c-0.2719-0.7085 0.1523-1.5363 0.9425-1.8396 2.1621-0.8296 1.7353-2.1571-1.1102-3.4536-3.6845-1.6788-4.0033-1.532-5.2099 2.3995l-1.0926 3.5601 2.1748 0.8085c2.7072 1.0065 4.9519 0.2358 4.2954-1.4749zm10.379 1.6955c0-0.4679-0.5109-2.3162-1.1353-4.1074-0.9052-2.5967-0.8604-3.4264 0.2211-4.0948 0.7459-0.461 1.0211-1.1734 0.6114-1.5831-1.8216-1.8217-3.9099 2.4178-3.2155 6.528 0.5902 3.4933 3.5183 6.2043 3.5183 3.2573zm-190.52-1.3215c2.6698-1.2165 2.9038-3.133 0.4383-3.5908-0.7794-0.1448-1.9373 0.8677-2.5731 2.25-1.3292 2.8899-1.3023 2.9068 2.1348 1.3408zm-44.479-0.9443c0-0.6179-0.8782-0.887-1.9658-0.6026-1.0812 0.2828-1.8687 0.054-1.75-0.5084 0.1186-0.5623-0.3467-1.2286-1.0342-1.4807-1.2996-0.4765-1.7505 1.8745-0.5834 3.0416 1.1055 1.1055 5.3334 0.7488 5.3334-0.4499zm-67.934-5.9186c1.0638-0.5693 1.9343-1.5464 1.9343-2.1712 0-0.6249 0.7447-1.959 1.6549-2.9649 1.3084-1.4457 1.3608-1.8207 0.25-1.7907-0.7727 0.0208-2.6382 1.8208-4.1454 4-2.8858 4.1721-2.84 4.6106 0.3062 2.9268zm-395.76-12.605c0.3522-0.3522-0.1024-1.8977-1.0102-3.4344-1.3416-2.2713-1.4148-3.0781-0.391-4.3117 1.3505-1.6273 0.6148-5.6136-1.036-5.6136-0.5475 0-0.8809 0.7875-0.7409 1.75 0.1399 0.9625-0.1015 2.8078-0.5365 4.1007-0.4808 1.4289-0.3599 2.7817 0.3083 3.45 0.6047 0.6046 1.0994 1.9093 1.0994 2.8993 0 1.8037 1.1066 2.36 2.3069 1.1597zm655.44-8.6097c-0.4719-1.4157-2.08-1.2601-2.5833 0.25-0.1834 0.55 0.4166 1 1.3333 1s1.4792-0.5625 1.25-1.25zm2.995-4.1961c0.2714-3.8128-0.5985-4.8992-2.7927-3.4879-1.2639 0.8128-1.2577 1.0637 0.048 1.934 1.2584 0.8389 1.278 1.1431 0.1219 1.8882-1.516 0.9771-0.7006 3.113 1.1871 3.1098 0.6551-1e-3 1.3013-1.5509 1.436-3.4441zm275.26-1.6609c0-1.0411-0.3949-1.893-0.8776-1.893-1.4174 0-3.3493 2.8239-2.6765 3.9125 0.9643 1.5603 3.5541 0.0887 3.5541-2.0195zm24.5 0.5195c-1.1-0.8382-1.8756-2.1399-1.7235-2.8928 0.4038-1.999-1.6285-2.8874-3.3455-1.4624-1.603 1.3303 0.8822 5.4852 2.6335 4.4028 0.4385-0.271 1.08-0.0354 1.4254 0.5236 0.3455 0.559 1.1641 1.002 1.8191 0.9845 0.6551-0.0175 0.291-0.7176-0.809-1.5557zm-678.47-2.3568c-1.369-2.558-2.7362-3.3398-3.5468-2.0282-0.8221 1.3301 1.2896 3.9725 3.1746 3.9725 1.0894 0 1.1746-0.445 0.3722-1.9443zm658.97-1.0557c0-0.55 0.9327-1 2.0726-1h2.0726l-2.0035-2.547c-1.1019-1.4008-2.2953-3.8758-2.652-5.5-0.3567-1.6241-1.2613-2.953-2.0101-2.953-1.9742 0-2.8281 1.8752-1.5534 3.4111 0.8163 0.9836 0.71 1.646-0.4139 2.5787-2.1882 1.816-1.856 3.2541 0.5735 2.483 1.8401-0.5841 1.9589-0.4248 1.008 1.3519-0.8041 1.5025-0.7624 2.1414 0.1642 2.5157 2.0127 0.813 2.742 0.7225 2.742-0.3404zm-665.01-6.0278c0.01-1.8751-3.7452-5.2429-4.9886-4.4744-0.6628 0.4096-0.7079 6.4084-0.061 8.1581 0.3304 0.8941 5.044-2.5443 5.0499-3.6837zm686.15 1.4557 3.0401-1.5721-1.7771-1.9637-1.7772-1.9637-2.3126 2.6913c-3.866 4.4991-2.6942 5.6632 2.8268 2.8082zm-70.903-2.2763c-1.682-4.4456-7.5603-5.8585-8.752-2.1036-0.9914 3.1235 0.8862 4.5648 5.3876 4.1356 3.2166-0.3068 3.8682-0.7004 3.3644-2.032zm200.53 1.0359c0.2177-0.6531-0.3166-1.1875-1.1875-1.1875-0.8708 0-1.5833 0.7125-1.5833 1.5833 0 1.766 2.1528 1.4584 2.7708-0.3958zm-163.36-2.3745c4.5949-1.229 6.3286-4.813 2.3281-4.813-1.0102 0-3.2204-0.7155-4.9115-1.59l-3.0746-1.5899-1.5391 1.539-1.5391 1.5391 2.0505-0.5362c1.1278-0.2949 2.3233-0.095 2.6565 0.4442 0.3333 0.5393-0.5159 1.262-1.8871 1.6062-2.376 0.5963-3.2579 2.4895-1.8264 3.9209 0.9493 0.9493 2.6837 0.8328 7.7427-0.5203zm-836.9-4.6415c-1.0771-1.0771-2.5515 1.5433-1.8691 3.3218l0.7014 1.8276 0.8529-2.3056c0.4691-1.2681 0.6108-2.5478 0.3148-2.8438zm61.745 3.4118c0.1375-0.5041-0.3125-1.1041-1-1.3333s-1.25 0.3333-1.25 1.25c0 1.6934 1.7927 1.7598 2.25 0.0833zm627.44-1.6091c0.3067-2.0098-1.109-2.7172-2.1304-1.0644-0.6867 1.111 0.4636 4.4041 1.2602 3.6076 0.3129-0.3129 0.7045-1.4573 0.8702-2.5432zm177.01-0.0141c0.8554-1.7018 0.8919-2.7501 0.1275-3.671-1.7954-2.1634-3.6314-1.4465-4.3195 1.6865-1.1656 5.3068 1.8131 6.7169 4.192 1.9845zm33.696-0.5419c0.8556-2.2297 0.7888-2.4182-0.8578-2.4182-0.8057 0-1.9465 0.9-2.5352 2-0.8984 1.6786-0.7605 2 0.8578 2 1.0605 0 2.2014-0.7118 2.5352-1.5818zm-26.393-1.7515c0-2.9982-0.9695-3.9369-2.637-2.553-0.9579 0.795-1.0422 1.6172-0.3068 2.9913 1.3958 2.6081 2.9438 2.3776 2.9438-0.4383zm-696.59-2.7434c2.8381-3.373 3.2626-4.93 1.3389-4.9109-1.0883 0.0108-5.75 6.0699-5.75 7.4736 0 1.4056 2.0972 0.1872 4.4111-2.5627zm16.412 0.7438c0.1871-0.9645-0.3148-1.6671-1.191-1.6671-1.8577 0-2.979 1.6301-2.0997 3.0528 0.9045 1.4636 2.9012 0.6228 3.2907-1.3857zm-26.661-4.182c0.4243-1.5865 0.5538-3.1022 0.2878-3.3682-0.8176-0.8175-2.2723 1.2357-3.0206 4.2635-0.9765 3.9508 1.6685 3.0843 2.7328-0.8953zm-5.6114-1.953c2.6661-6.3808 1.1699-11.4-2.4277-8.1437-1.5919 1.4407-1.8079 2.311-1.0611 4.2754 0.5158 1.3565 0.9378 3.5621 0.9378 4.9013 0 3.3844 0.8489 3.0406 2.551-1.033zm854.45 1.1679c0-1.265 0.5625-2.9128 1.25-3.6618 0.6875-0.7491-0.2125-0.3584-2 0.8681-3.4611 2.3747-4.0212 3.6158-2 4.4314 2.3123 0.933 2.75 0.6724 2.75-1.6377zm-164-2.7833c0-2.022-0.4303-2.9401-1.25-2.6672-1.7903 0.5961-2.1912 3.8559-0.5984 4.8654 1.8806 1.1918 1.8484 1.23 1.8484-2.1982zm53-0.4187c0.275-0.5418-0.8103-0.988-2.4117-0.9915-1.6014-4e-3 -3.1116 0.5864-3.3559 1.3111-0.5286 1.5681 4.9639 1.2637 5.7676-0.3196zm-888.41-1.998c1.4836-1.375 3.2493-2.5 3.9237-2.5 1.4636 0 2.9314-7.9504 1.6959-9.1859-0.4819-0.4818-1.6683 0.0303-2.6928 1.1623-1.8738 2.0706-4.5213 2.7326-4.5213 1.1306 0-0.4912-0.6465-1.1411-1.4366-1.4443-1.1055-0.4242-1.4239 0.3669-1.3816 3.4334 0.033 2.4051-0.6155 4.7256-1.6364 5.8537l-1.6915 1.8691 1.823 1.0601c2.5716 1.4955 2.898 1.4195 5.9176-1.379zm-181.02-2.2625c-0.2428-0.2428-1.3677 0.2073-2.4998 1.0002s-1.7602 1.7398-1.3958 2.1042c0.3643 0.3643 1.4892-0.0858 2.4997-1.0002 1.0105-0.9145 1.6387-1.8614 1.3959-2.1042zm-2.4316-1.2042c1.2984-1.0817 1.7983-1.9817 1.1108-2s-1.25-0.9708-1.25-2.1166c0-1.2404 0.5057-1.901 1.25-1.6326 1.8495 0.667 6.7656-2.4745 6.6503-4.2497-0.1395-2.1473-1.6532-6.6941-1.9257-5.7844-0.1235 0.4125-0.2809 1.2407-0.3496 1.8405-0.069 0.5997-2.6 2.4008-5.625 4.0023-3.025 1.6016-5.5119 3.4734-5.5265 4.1596-0.014 0.6862-0.422 1.8803-0.9055 2.6537-0.7123 1.1394-0.2739 1.2851 2.3113 0.768l3.1902-0.638-2.7847 2.4503-2.7848 2.4504 2.1392 0.0316c1.1765 0.0174 3.2015-0.8534 4.5-1.9351zm156.46-0.2833c0.014-1.2375-0.2788-2.475-0.6509-2.75-1.9735-1.4583-2.025-5-0.073-5 3.0098 0 3.3843-1.5614 0.6709-2.7977-1.8601-0.8476-2.6543-0.775-3.5679 0.3259-1.0118 1.219-1.38 1.2112-2.6474-0.0561-1.9965-1.9965-2.997-1.8506-3.619 0.5279-0.3787 1.448-0.031 2 1.2609 2 2.2832 0 4.6161 2.7918 4.2312 5.0636-0.2131 1.2579 2.9955 4.9364 4.3059 4.9364 0.035 0 0.075-1.0125 0.089-2.25zm858.35-1.1803c0.9479-1.1421 0.7844-1.6457-0.8118-2.5-4.4564-2.385-8.0536-0.393-4.9303 2.7303 1.6209 1.6209 4.2948 1.5137 5.7421-0.2303zm16.175-3.8525c-1.0941-1.0944-4.117 0.2241-4.117 1.7957 0 1.0263 0.5142 1.0563 2.4498 0.143 1.3474-0.6357 2.0977-1.5082 1.6672-1.9387zm-23.021-1.3325c1.1599-1.3976 1.0864-1.5661-0.5447-1.25-1.0369 0.2009-2.0726 0.9278-2.3015 1.6153-0.5939 1.7839 1.26 1.5459 2.8462-0.3653zm134.79 0.248c0.8589-1.0349 0.7955-1.6489-0.2608-2.5255-1.0864-0.9017-1.5322-0.8022-2.0123 0.4491-1.3301 3.466 0.0634 4.7389 2.2731 2.0764zm-1301.9-4.6917c0-0.5176-0.675-0.941-1.5-0.941-1.5464 0-1.9867 1.18-0.8606 2.3062 0.799 0.7989 2.3606-0.1042 2.3606-1.3652zm160.64-2.6348c-1.063-1.063-5.6395 0.7536-5.6395 2.2385 0 1.3222 0.3786 1.3108 3.0929-0.0928 1.7011-0.8796 2.8471-1.8452 2.5466-2.1457zm119.36 2.8849c0-0.4449-0.6607-1.6824-1.4682-2.75l-1.4682-1.9411-0.032 2.0833c-0.017 1.1459 0.2682 2.3834 0.6348 2.75 0.9222 0.9222 2.3334 0.8362 2.3334-0.1422zm1026.7-1.1447c0.8679-1.3898 0.905-2.1484 0.1287-2.6281-1.1564-0.7148-2.8267 1.2362-2.8524 3.3317-0.0228 1.8635 1.3404 1.5113 2.7237-0.7036zm-1133.4-2.5842c0.3398-0.8856-0.057-1.7863-0.9361-2.1236-1.9566-0.7508-2.8495 0.152-2.095 2.1183 0.7591 1.9781 2.273 1.9808 3.0311 5e-3zm-10.321-3.0281c0.7148-0.8613 2.5699-2.2229 4.1224-3.0257 1.9433-1.0049 2.8229-2.2308 2.8229-3.9341 0-3.2071-1.3788-3.1225-5.8561 0.3596-2.0042 1.5586-4.4314 3.1195-5.3939 3.4686s-1.75 1.0847-1.75 1.6347 0.6801 0.7391 1.5113 0.4201c1.0815-0.415 1.3355-0.1216 0.893 1.0314-0.8117 2.1153 1.9044 2.1491 3.6504 0.0454zm-2.2049-8.017c0.1924-1.0544 1.2833-2.9296 2.4243-4.1671s1.694-2.25 1.2289-2.25c-1.5266 0-4.503 3.2752-4.503 4.955 0 0.9047-0.5625 2.2412-1.25 2.97-1.0089 1.0694-0.9606 1.2367 0.25 0.8671 0.825-0.2518 1.6574-1.3205 1.8498-2.375zm-270.19-9.8499c-0.3308-0.862-1.2809-1.5672-2.1114-1.5672-1.252 0-1.3132 0.4317-0.3585 2.5271 1.2436 2.7293 3.5427 1.8358 2.4699-0.9599zm-103.23 1.5465c0.3013-0.4875-0.3467-1.1202-1.4399-1.4061-2.2124-0.5786-3.7238 0.8307-1.746 1.628 1.943 0.7834 2.5926 0.7381 3.1859-0.2219zm371.14-1.0089c-0.3043-0.4924 0.1477-1.1642 1.0044-1.4929 0.8567-0.3288 1.2757-1.054 0.931-1.6117-0.3446-0.5576 0.3052-2.3225 1.4441-3.9219s2.3545-5.0838 2.7014-7.7431c0.3469-2.6594 1.0736-5.3977 1.615-6.0852 1.4644-1.8597-1.7119-1.6162-3.2606 0.25-0.6847 0.825-1.7888 1.5-2.4535 1.5-1.4773 0-4.1486 4.7313-3.2044 5.6755 0.3732 0.3732 1.3265-0.1886 2.1185-1.2485l1.4399-1.927-0.5947 2.5c-0.3271 1.375-1.0247 3.0503-1.5503 3.723-0.5255 0.6726-0.9555 2.8113-0.9555 4.7527 0 1.9415-0.4124 3.7847-0.9163 4.0962-1.0878 0.6723-0.1952 2.4281 1.2343 2.4281 0.55 0 0.751-0.4028 0.4467-0.8952zm-5.5647-7.2298c0-0.4812-0.5025-0.875-1.1167-0.875-0.6243 0-0.886-0.8818-0.5936-2 0.589-2.2524-0.2979-2.5919-2.0897-0.8-2.1184 2.1184-1.4237 4.55 1.3 4.55 1.375 0 2.5-0.3937 2.5-0.875zm-240.74-0.4728c0.8012-0.8011-0.2473-3.4022-1.3714-3.4022-0.4911 0-0.893 0.9-0.893 2 0 1.9492 1.0607 2.606 2.2644 1.4022zm230.83-1.4524c2.3605-1.2633 1.6061-2.9498-1.3194-2.9498-1.1592 0-1.8116 0.2961-1.4497 0.658s0.1568 1.2619-0.4558 2c-1.3919 1.6771 0.3431 1.8341 3.2249 0.2918zm-220.14-5.1233-1.9862-1.6736 1.7664-0.4604 1.7663-0.4605-1.8436-0.116c-1.0642-0.067-2.0647 0.7295-2.3666 1.884-0.2877 1.1-0.9244 2-1.4149 2s-0.3555 0.8588 0.3 1.9084l1.1918 1.9084 2.2865-1.6584 2.2865-1.6584zm171.57-1.7298c-0.2369-1.23 0.314-2.0812 1.5574-2.4063 1.9496-0.5099 2.73-2.6904 0.9629-2.6904-2.2474 0-5.7018 5.0038-4.3723 6.3333 1.2786 1.2786 2.2159 0.6528 1.852-1.2366zm55.825-9.303c0.3173-1.2135 0.3912-2.3921 0.1642-2.6191-0.788-0.788-3.6319 2.8157-3.0127 3.8177 1.0245 1.6577 2.2347 1.1484 2.8485-1.1986zm-20.344-3.0682c0-2.0163-2.5216 0.1182-2.7794 2.3528l-0.2794 2.4217 1.5294-1.9411c0.8411-1.0677 1.5294-2.3426 1.5294-2.8334zm-332 2.3815c0-1.1241-2.6011-2.1725-3.4022-1.3714-1.2038 1.2037-0.547 2.2644 1.4022 2.2644 1.1 0 2-0.4019 2-0.893zm311.03-1.1586c0.6039-1.1284 0.9572-2.9831 0.7852-4.1216l-0.3128-2.07-2.5 2.1859c-1.6097 1.4074-2.0749 2.364-1.3062 2.6862 0.6566 0.2752 0.9459 1.1462 0.643 1.9357-0.8526 2.222 1.4546 1.6936 2.6908-0.6162zm-10.653-2.1513c-0.2728-0.4414-1.3813-0.3287-2.4633 0.2504-1.0821 0.579-1.7089 1.4711-1.393 1.9822 0.3388 0.5481 1.3493 0.4454 2.4633-0.2503 1.039-0.6488 1.6658-1.5409 1.393-1.9823zm-168.71-2.4735c0.099-1.9585-0.5342-3.8046-1.6507-4.8151-2.7321-2.4725-3.5445-4e-3 -1.0447 3.1738 2.1573 2.7425 1.2664 4.7274-1.624 3.6182-0.7374-0.283-1.3407 0.0136-1.3407 0.6589 0 3.1092 5.4996 0.5481 5.6601-2.6358zm142.1-8.2526c-0.793-1.132-1.7019-1.7981-2.0199-1.4801s0.1484 1.4266 1.0363 2.4637c2.0963 2.4482 2.8555 1.689 0.9836-0.9836zm-223.17-1.6122 2.9055-2.5413-1.8973-1.4267c-1.8809-1.4143-4.0943-1.0952-3.1378 0.4524 0.2736 0.4427-0.5921 1.6232-1.9238 2.6232-2.4432 1.8348-2.5073 3.4336-0.1376 3.4336 0.707 0 2.5929-1.1436 4.191-2.5412zm112.08-1.6326c-0.719-0.4617-0.7266-1.0912-0.024-2 0.7388-0.9558 0.5113-1.815-0.8143-3.0762l-1.8394-1.75v2.941c0 1.6175 0.4573 3.2236 1.0163 3.5691 0.5589 0.3454 0.7574 1.047 0.4409 1.559-0.3164 0.512-0.2461 1.4635 0.1563 2.1145 0.5007 0.8103 0.9494 0.5737 1.4225-0.75 0.38-1.0635 0.2188-2.2368-0.3582-2.6074zm-24.678-1.3852c0-1.8926-0.4218-3.441-0.9373-3.441s-0.9126 1.7938-0.8823 3.9863c0.03 2.1924 0.452 3.7409 0.9373 3.441s0.8823-2.0938 0.8823-3.9863zm-41.993-1.4278c-1.5871-2.9654-3.157-2.4811-2.3879 0.7368 0.9649 4.037 1.5505 4.6981 2.5615 2.8917 0.5616-1.0036 0.4959-2.3775-0.1736-3.6285zm185.7 3.3641c0.2056-0.6174-0.5447-1.3628-1.6671-1.6564-1.547-0.4045-2.0409-0.0545-2.0409 1.446 0 2.1159 3.0167 2.287 3.708 0.2104zm37.792-7.6581c1.6178-0.3941 1.6655-0.5094 0.25-0.6032-0.9625-0.0638-1.75-0.6148-1.75-1.2244 0-0.683 0.9596-0.8676 2.5-0.481 2.2179 0.5567 2.4982 0.3151 2.4847-2.1415-0.025-4.5264-1.4079-5.7165-3.0556-2.6297-0.786 1.4727-2.6649 4.002-4.1753 5.6207-2.8864 3.0935-2.8056 5.9775 0.095 3.4083 0.9079-0.8041 2.5508-1.6812 3.6508-1.9492zm-50.115-3.2192c0.7376-3.4421-0.6917-1.5375-1.8761 2.5-0.4818 1.6424-0.396 2.157 0.25 1.5 0.5408-0.55 1.2725-2.35 1.6261-4zm-145.29-3.9666c-1.3938-6.2282-2.1137-6.6798-4.5999-2.8854l-1.7351 2.6481 2.1191-0.5542c1.1654-0.3048 2.371-0.1464 2.679 0.352 0.308 0.4983 0.084 0.9061-0.499 0.9061-1.4254 0-1.3396 2.5777 0.166 4.9886 2.1876 3.503 3.2083 0.5254 1.8699-5.4552zm155.24 4.632c-0.6463-2.4714-2.6548-2.4183-3.1401 0.0832-0.1705 0.8784 0.4971 1.7609 1.5 1.983 2.3496 0.5204 2.3247 0.5518 1.6401-2.0662zm54.806-0.1321c2.6454-2.2039 2.2098-2.4967-1.5741-1.058-1.4108 0.5363-2.5651 1.4363-2.5651 2 0 1.5748 1.5383 1.2247 4.1392-0.942zm-218.65-6.6554c1.598-3.8245 1.9909-8.5671 0.8078-9.7502-0.576-0.576-4.1351 9.9712-4.2593 12.622-0.1003 2.143 2.1323 0.2851 3.4515-2.8721zm218.44 0.8914 1.2442-2.7307-2.0837 1.8857c-2.1493 1.9451-2.7167 3.5757-1.2442 3.5757 0.4618 0 1.3994-1.2288 2.0837-2.7307zm-72.123-1.4693c1.6332-1.6332 1.5082-2.8-0.3-2.8-0.825 0-1.5 0.1882-1.5 0.4182s-0.2732 1.13-0.607 2c-0.7162 1.8663 0.6981 2.0906 2.407 0.3818zm-0.8-6.3c0-0.825-0.675-1.5-1.5-1.5s-1.5 0.675-1.5 1.5 0.675 1.5 1.5 1.5 1.5-0.675 1.5-1.5zm-43-3c0-0.7601-0.45-1.6601-1-2-0.5694-0.3519-1 0.5093-1 2s0.4306 2.3519 1 2c0.55-0.3399 1-1.2399 1-2zm72.54 0.25c-0.029-1.2375-0.4142-2.8125-0.8555-3.5-0.4809-0.7492-0.3257-1.25 0.3875-1.25 0.8005 0 1.0047-1.141 0.624-3.4867-0.3566-2.1975-0.1199-3.7689 0.6402-4.25 1.1327-0.7168 4.0754-6.3804 3.4514-6.6425-0.1581-0.0664-1.2938-0.6833-2.5239-1.3708-2.7001-1.5091-3.592-1.5905-2.7648-0.252 0.6152 0.9954-2.211 6.9295-3.8769 8.1402-0.4829 0.351-0.5978 1.0917-0.2553 1.6459 0.3426 0.5543-0.029 2.265-0.8267 3.8017l-1.4495 2.7939 3.2048 3.2995c3.8003 3.9125 4.3148 4.0423 4.2447 1.0708zm-19.54-4.8724c0-3.566-0.2042-3.9531-1.5124-2.8674-1.0946 0.9085-1.2193 1.6082-0.4514 2.5334 0.7481 0.9015 0.747 1.4724 0 1.9365-1.18 0.7293-0.4504 2.5199 1.0268 2.5199 0.5175 0 0.941-1.8551 0.941-4.1224zm-154.66 1.6862c0.8793-2.2913-3.4027-7.198-4.5275-5.188-0.5862 1.0474-0.3271 2.4309 0.768 4.1023 1.8726 2.8579 2.9591 3.1717 3.7595 1.0857zm108.16-1.7305c0-3.7507-2.0281-4.8955-3.0377-1.7145-0.5601 1.7647 1.3418 4.8812 2.9788 4.8812 0.032 0 0.059-1.425 0.059-3.1667zm-44.174-1.2393c0.2968-0.7734-0.252-2.1225-1.2195-2.998l-1.7591-1.592 0.44 2.998c0.4672 3.1828 1.6448 3.9213 2.5386 1.592zm52.674 0.4468c0-1.852-5.4991-10.041-6.7428-10.041-2.399 0-0.838 4.4901 3.042 8.75 2.1544 2.3653 3.7008 2.9047 3.7008 1.2908zm-28.437-11.226c-0.094-6.4756-1.7868-5.1917-2.2213 1.6853-0.3243 5.1338-0.1868 5.7567 0.9525 4.3147 0.7324-0.9269 1.3034-3.6268 1.2688-6zm73.982 2.5095c-0.3403-1.3557-0.1341-2.3242 0.4947-2.3242 0.593 0 0.7758-0.4892 0.4062-1.0871-1.1225-1.8164-2.7784 0.6799-3.0919 4.6613-0.2476 3.1436-0.086 3.448 1.2449 2.3435 0.9616-0.798 1.3128-2.1322 0.9461-3.5935zm-24.196-5.8562c-0.3098-0.8074-0.9652-1.468-1.4563-1.468-1.0261 0-1.2066 2.3531-0.2536 3.3062 1.0668 1.0667 2.3113-0.2711 1.7099-1.8382zm20.049-0.3037c1.2157-1.9671-0.8996-6.4703-2.266-4.8239-0.7273 0.8764-1.012 2.4638-0.6477 3.6116 0.6717 2.1161 2.0108 2.6733 2.9137 1.2123zm21.602-3.1643c0-1.9492-1.0607-2.606-2.2645-1.4022-0.8011 0.8011 0.2474 3.4022 1.3715 3.4022 0.4911 0 0.893-0.9 0.893-2zm-50.14-17.669c-1.297-1.5628-3.8595-0.055-3.8595 2.2703 0 1.0825 0.5028 1.127 2.4921 0.2206 1.9459-0.8866 2.2457-1.4326 1.3674-2.4909zm934.4 203.72c-0.855-1.3692-0.8983-2.1525-0.1446-2.6184 1.4116-0.8724 4.3173 2.0613 3.4429 3.476-0.9856 1.5947-1.9182 1.3522-3.2983-0.8576zm-149.72-2.9773c-0.7395-1.1966 1.1416-2.3822 2.4736-1.559 1.1184 0.6912 0.3842 2.4899-1.0163 2.4899-0.4851 0-1.1409-0.4189-1.4573-0.9309zm-179.88-37.736c-1.3285-1.3285-0.6079-2.1149 2.3334-2.5466 3.2129-0.4716 3.7189 0.0944 1.8 2.0133-1.3278 1.3277-3.1091 1.5576-4.1334 0.5333zm-425.48-6.3958c0.2406-0.7219 1.0281-1.5094 1.75-1.75 0.75-0.25 1.125 0.125 0.875 0.875-0.2407 0.7219-1.0282 1.5094-1.75 1.75-0.75 0.25-1.125-0.125-0.875-0.875zm968.81-21.938c0-0.55 0.7875-1.0061 1.75-1.0137 0.9625-8e-3 2.875-0.3105 4.25-0.6734l2.5-0.6597-1.3724 1.6734c-1.4737 1.7968-7.1276 2.331-7.1276 0.6734zm-662.33-2.6667c-1.1506-1.1506-0.7282-2.3333 0.8334-2.3333 0.825 0 1.5 0.675 1.5 1.5 0 1.5616-1.1827 1.984-2.3334 0.8333zm-317.67-11.76c0-0.9276 0.855-1.5733 2.0833-1.5733 2.437 0 2.0926 2.3368-0.4162 2.8233-0.9868 0.1914-1.6671-0.3187-1.6671-1.25zm978.02-3.5611c-1.2414-0.7673-1.1957-1.0075 0.3015-1.5819 2.0864-0.8007 3.4488 0.1997 2.1038 1.5447-0.568 0.5681-1.5225 0.5828-2.4053 0.0372zm-1390.3-21.207c2.3128-2.3128 3.9053-1.9558 2.9049 0.6513-0.3257 0.8487-1.6062 1.5431-2.8457 1.5431h-2.2536zm-9.277-17.849c-0.3251-0.526-1.577-0.9572-2.782-0.9583-1.7316-2e-3 -2.2362-0.6457-2.4064-3.0718-0.2474-3.5271 1.6287-3.5954 3.2004-0.1165 0.5417 1.1992 2.094 2.55 3.4494 3.0018 2.0267 0.6756 2.1683 0.9351 0.7971 1.4613-0.9171 0.3519-1.9334 0.2095-2.2585-0.3165zm11.771-14.621c-1.5756-0.6352-0.6181-2.3356 1.3152-2.3356 0.7926 0 1.441 0.675 1.441 1.5 0 1.542-0.5732 1.7158-2.7562 0.8356zm-1.9657-4.5856c-2.6706-3.4531-2.7624-4.2959-0.2903-2.6644 2.5546 1.6859 3.8173 3.9144 2.218 3.9144-0.5285 0-1.3959-0.5625-1.9277-1.25zm99.07-2.8015c-0.5783-0.5783-0.8408-2.1533-0.5834-3.5 0.5397-2.8235 1.7731-3.2827 1.8761-0.6985 0.038 0.9625 0.4079 2.5375 0.8212 3.5 0.8277 1.9274-0.4596 2.3527-2.1139 0.6985zm1458.2-622.45c0-1.4036 0.5787-2.5 1.3196-2.5 0.7857 0 1.1902 0.8785 1 2.1717-0.4521 3.0722-2.3196 3.3365-2.3196 0.3283z"/>
 </g>
</svg>
